<?xml version="1.0" encoding="utf-8"?>
<!-- Generator: Adobe Illustrator 19.2.1, SVG Export Plug-In . SVG Version: 6.00 Build 0)  -->
<svg version="1.1" id="Layer_2" xmlns="http://www.w3.org/2000/svg" xmlns:xlink="http://www.w3.org/1999/xlink" x="0px" y="0px"
	 viewBox="0 0 80.3 80.3" style="enable-background:new 0 0 80.3 80.3;" xml:space="preserve">
<style type="text/css">
	.st0{fill:#EB6A5C;}
	.st1{fill:#552F2F;}
	.st2{fill:#2384AB;}
	.st3{fill:#FFFFFF;}
	.st4{fill:#0C2C48;}
	.st5{fill:#F6A09C;}
	.st6{fill:#61C3AF;}
	.st7{fill:#2F4555;}
	.st8{fill:#55AB99;}
	.st9{fill:#ED6B5A;}
	.st10{fill:#2484AD;}
	.st11{fill:#FCA886;}
	.st12{fill:#F1CC4B;}
	.st13{fill:#6EB9E0;}
	.st14{fill:#50646F;}
	.st15{fill:#EDC84A;}
	.st16{fill:#E7543A;}
	.st17{fill:#F38D80;}
	.st18{fill:#F2F2F2;}
	.st19{fill:#81CAFF;}
	.st20{clip-path:url(#SVGID_4_);fill:#55AB99;}
	.st21{fill:#BABFC5;}
	.st22{fill:#BBC2C7;}
</style>
<g>
	
		<ellipse transform="matrix(1 -2.553099e-03 2.553099e-03 1 -0.1024 0.1027)" class="st8" cx="40.2" cy="40.2" rx="40.2" ry="40.2"/>
	<g>
		<g>
			<g>
				<path class="st4" d="M20.4,32.5c0,1.4-1.1,2.6-2.5,2.6l-1.7,0c-1.4,0-2.6-1.1-2.6-2.5l0-7.4c0-1.4,1.1-2.6,2.5-2.6l1.7,0
					c1.4,0,2.6,1.1,2.6,2.5L20.4,32.5z"/>
				<g>
					<polygon class="st4" points="17.5,26.4 16.6,26.4 16.6,18.9 20.8,16.4 21.3,17.1 17.4,19.4 					"/>
				</g>
			</g>
			<g>
				<path class="st4" d="M59.9,32.4c0,1.4,1.2,2.6,2.6,2.5l1.7,0c1.4,0,2.6-1.1,2.5-2.6l0-7.4c0-1.4-1.2-2.6-2.6-2.5l-1.7,0
					c-1.4,0-2.6,1.1-2.5,2.6L59.9,32.4z"/>
				<g>
					<polygon class="st4" points="62.8,26.2 63.6,26.2 63.6,18.8 59.4,16.3 58.9,17 62.8,19.3 					"/>
				</g>
			</g>
		</g>
		<g>
			
				<rect x="22" y="62.2" transform="matrix(1 -2.620564e-03 2.620564e-03 1 -0.1712 6.526899e-02)" class="st4" width="5.6" height="6.4"/>
			
				<rect x="52.9" y="62.1" transform="matrix(1 -2.620094e-03 2.620094e-03 1 -0.1708 0.146)" class="st4" width="5.6" height="6.4"/>
		</g>
		<path class="st7" d="M61.1,60.4L61,17.6c0-1.4-1.2-2.6-2.6-2.5l-36.6,0.1c-1.4,0-2.6,1.2-2.5,2.6l0.1,42.8L61.1,60.4z"/>
		<rect x="22.2" y="24" class="st19" width="36.8" height="16.5"/>
		<g>
			
				<rect x="20.4" y="50.7" transform="matrix(1 -2.517052e-03 2.517052e-03 1 -0.1334 6.278459e-02)" class="st12" width="8.9" height="4.7"/>
			
				<rect x="51.1" y="50.6" transform="matrix(1 -2.517193e-03 2.517193e-03 1 -0.1331 0.1399)" class="st12" width="8.9" height="4.7"/>
		</g>
		<polygon class="st7" points="41.2,42.5 39.1,42.6 39.9,22 40.3,22 		"/>
		
			<rect x="17.1" y="59.6" transform="matrix(1 -2.537849e-03 2.537849e-03 1 -0.1546 0.1023)" class="st21" width="46.2" height="2.8"/>
	</g>
</g>
</svg>
