<svg xmlns="http://www.w3.org/2000/svg" viewBox="0 0 512 512"><defs><style>.cls-1{fill:#f1ce34;}.cls-2{fill:#dc7da7;}.cls-3{fill:#bb7095;}.cls-4{fill:#33407a;}.cls-5{fill:#5b93bb;}.cls-6{fill:#619fd8;}.cls-7{fill:#f0c788;}.cls-8{fill:#eaac6c;}.cls-9{fill:#fff;}.cls-10{fill:none;stroke:#ad7d55;stroke-linecap:round;stroke-miterlimit:10;stroke-width:8px;}.cls-11{fill:#303c69;}.cls-12{fill:#db3a46;}.cls-13{fill:#a32f3b;}.cls-14{fill:#c6729c;}.cls-15{fill:#6bac6f;}.cls-16{fill:#75c07d;}.cls-17{fill:#eec586;}.cls-18{fill:#e8aa6c;}.cls-19{fill:#d93a46;}.cls-20{fill:#ad3542;}</style></defs><title>Charity</title><g id="BULINE"><circle class="cls-1" cx="256" cy="262" r="250"/></g><g id="Icons"><path class="cls-2" d="M299.76,47.18,257,90,221.75,54.71l-7.52-7.53A24.91,24.91,0,0,1,249.46,12L257,19.48,264.52,12a24.91,24.91,0,0,1,35.24,35.23Z"/><path class="cls-3" d="M257,90,221.75,54.71l-7.52-7.53A24.91,24.91,0,0,1,228.9,4.83,110.76,110.76,0,0,0,257,90Z"/><path class="cls-4" d="M464.19,140V197.6H276.7V140A55.3,55.3,0,0,1,332,84.66h76.88a55.29,55.29,0,0,1,55.3,55C464.19,139.72,464.19,139.85,464.19,140Z"/><path class="cls-5" d="M463.57,348.31v53.08a250.4,250.4,0,0,1-145.5,102.84l-1.95.49c-2.18.54-4.38,1.06-6.59,1.54a249.67,249.67,0,0,1-26.88,4.33V348.31c0-.16,0-.32,0-.48a33.08,33.08,0,0,1,2.6-12.57,29.29,29.29,0,0,1,3.77-6.52c.54-.7,1.11-1.37,1.7-2a22.84,22.84,0,0,1,16.75-7.67H438.74C452.46,319.06,463.57,332.16,463.57,348.31Z"/><path class="cls-6" d="M463.57,348.31v53.08a250.4,250.4,0,0,1-145.5,102.84l-1.95.49c-2.18.54-4.38,1.06-6.59,1.54V348.31c0-.16,0-.32,0-.48a31.54,31.54,0,0,1,8.07-21.1,23.91,23.91,0,0,1,2.19-2.09s0-.05.06-.05a23.08,23.08,0,0,1,7.24-4.25l.57-.2a21.85,21.85,0,0,1,6.7-1.08H438.74C452.46,319.06,463.57,332.16,463.57,348.31Z"/><path class="cls-7" d="M342.89,289.67H400a0,0,0,0,1,0,0v39.45a12.59,12.59,0,0,1-12.59,12.59H355.48a12.59,12.59,0,0,1-12.59-12.59V289.67A0,0,0,0,1,342.89,289.67Z"/><ellipse class="cls-8" cx="278.7" cy="218.76" rx="16.22" ry="21.16"/><path class="cls-8" d="M400.16,126.82s-23.31,41.89-105.24,41.89c0,0-3.81,21.34-16.22,28.89v21.29a92.75,92.75,0,1,0,185.49,0V197.6S400.16,176.82,400.16,126.82Z"/><ellipse class="cls-8" cx="464.19" cy="218.76" rx="16.22" ry="21.16"/><path class="cls-7" d="M464.19,178.27v40.62a92.79,92.79,0,0,1-78.55,91.67,92.79,92.79,0,0,1-78.56-91.67V178.27A92.77,92.77,0,0,1,385.64,86.6,92.57,92.57,0,0,1,437,112.69C453.81,129.46,453.5,154,464.19,178.27Z"/><rect class="cls-4" x="321.78" y="193.29" width="19.26" height="31.93" rx="9.63"/><circle class="cls-9" cx="333.43" cy="202.64" r="5.07"/><rect class="cls-4" x="405.4" y="193.29" width="19.26" height="31.93" rx="9.63"/><circle class="cls-9" cx="417.06" cy="202.64" r="5.07"/><path class="cls-10" d="M354.09,267.07a17.36,17.36,0,1,0,34.71,0"/><rect class="cls-8" x="354.09" y="222.89" width="34.72" height="19.36" rx="9.68"/><path class="cls-4" d="M402.66,242.25H340.23A20.28,20.28,0,0,0,320,262.53h32.59a20.25,20.25,0,0,0,18.9-13,20.27,20.27,0,0,0,18.9,13h32.6A20.28,20.28,0,0,0,402.66,242.25Z"/><path class="cls-4" d="M464.18,139.61q-2.78,3.22-5.85,6.15a92.75,92.75,0,0,1,5.85,32.51v19.32s-23.11-19.38-41.71-39.37a6.46,6.46,0,0,0-7.09-1.65l-.2.08C394,165.17,371.27,169,348.46,169h-39.9a20.16,20.16,0,0,0-18.16,11.55c-3,6.2-7.41,13.28-13.43,17.07l-.27.17,0-.17,2-19.33c0-3.14.17-6.23.47-9.29h-.47A84.23,84.23,0,0,1,363,84.66h76.06c28.17,0,43.71,33,25.48,54.5Z"/><path class="cls-11" d="M312.43,169c-2.21,0-14.46,15.42-24.55,28.62H277l-.27.17,0-.17h0V140A55.3,55.3,0,0,1,332,84.66h8.1c.25.94.49,1.93.73,3C347.52,115.69,354.65,169,312.43,169Z"/><path class="cls-12" d="M245.85,125.88l-2,195.73c0,9.26-7.79,16.77-17.38,16.77H58.73c-9.6,0-17.38-7.51-17.38-16.77l2-195.73c0-29.4,24.71-53.23,55.19-53.23h92.08C221.14,72.65,245.85,96.48,245.85,125.88Z"/><path class="cls-13" d="M135.91,72.65,106.68,338.38h-48c-9.6,0-17.38-7.51-17.38-16.77l2-195.73c0-29.4,24.71-53.23,55.19-53.23Z"/><path class="cls-14" d="M234.41,331.89V471.26H119.15a251.75,251.75,0,0,1-65.67-62.64V331.89a24.85,24.85,0,0,1,24.84-24.84H209.57a22.44,22.44,0,0,1,3.08.2,24.29,24.29,0,0,1,10,3.51,24.75,24.75,0,0,1,9.51,10.74,23.93,23.93,0,0,1,2,6.44,21.81,21.81,0,0,1,.3,3.25C234.41,331.42,234.41,331.66,234.41,331.89Z"/><path class="cls-2" d="M234.41,331.89V511.08c-4.5-.38-9-.89-13.41-1.52-5.08-.7-10.11-1.57-15.09-2.58A249.51,249.51,0,0,1,82.34,441.84V331.89a24.85,24.85,0,0,1,24.84-24.84H209.57a22.44,22.44,0,0,1,3.08.2,24.29,24.29,0,0,1,10,3.51,24.75,24.75,0,0,1,9.51,10.74,23.93,23.93,0,0,1,2,6.44,21.81,21.81,0,0,1,.3,3.25C234.41,331.42,234.41,331.66,234.41,331.89Z"/><path class="cls-7" d="M115.7,277.66h57.1a0,0,0,0,1,0,0v39.45a12.59,12.59,0,0,1-12.59,12.59H128.29a12.59,12.59,0,0,1-12.59-12.59V277.66A0,0,0,0,1,115.7,277.66Z"/><ellipse class="cls-8" cx="51.51" cy="206.75" rx="16.22" ry="21.16"/><path class="cls-8" d="M173,114.81S149.66,156.7,67.73,156.7c0,0-3.81,21.34-16.22,28.89v21.29a92.75,92.75,0,1,0,185.49,0V185.59S173,164.81,173,114.81Z"/><ellipse class="cls-8" cx="237" cy="206.75" rx="16.22" ry="21.16"/><path class="cls-7" d="M237,173.51V211.9c0,43.85-34.07,80.18-78.56,86.65-44.48-6.47-78.55-42.8-78.55-86.65V173.51c0-43.86,34.07-80.19,78.55-86.65a94.45,94.45,0,0,1,51.39,24.66C226.62,127.38,237,149.3,237,173.51Z"/><rect class="cls-4" x="94.59" y="188.2" width="19.26" height="31.93" rx="9.63"/><circle class="cls-9" cx="106.24" cy="197.54" r="5.07"/><rect class="cls-4" x="178.21" y="188.2" width="19.26" height="31.93" rx="9.63"/><circle class="cls-9" cx="189.86" cy="197.54" r="5.07"/><path class="cls-10" d="M126.89,250.13a17.36,17.36,0,0,0,34.72,0"/><rect class="cls-8" x="130.06" y="220" width="28.38" height="15.83" rx="7.91"/><path class="cls-12" d="M330.45,300.84v47H191.58v-47a50.8,50.8,0,0,1,50.8-50.8h37.27A50.79,50.79,0,0,1,330.45,300.84Z"/><path class="cls-15" d="M316.12,444.38v60.34c-2.18.54-4.38,1.06-6.59,1.54a249.67,249.67,0,0,1-26.88,4.33A252.21,252.21,0,0,1,256,512q-10.91,0-21.59-.92c-4.5-.38-9-.89-13.41-1.52-5.08-.7-10.11-1.57-15.09-2.58v-62.6a27.57,27.57,0,0,1,27.57-27.57h55.07a27.58,27.58,0,0,1,27.57,27.57Z"/><path class="cls-16" d="M318.07,444.38v59.85l-1.95.49c-2.18.54-4.38,1.06-6.59,1.54a249.67,249.67,0,0,1-26.88,4.33A252.21,252.21,0,0,1,256,512q-10.91,0-21.59-.92c-4.5-.38-9-.89-13.41-1.52V444.38a27.43,27.43,0,0,1,13.41-23.5,28.35,28.35,0,0,1,13-4q.87-.06,1.74-.06h40.81a28.33,28.33,0,0,1,19.59,7.79A27.19,27.19,0,0,1,318.07,444.38Z"/><path class="cls-17" d="M247.39,400.33h30.17a0,0,0,0,1,0,0v20.84a6.65,6.65,0,0,1-6.65,6.65H254a6.65,6.65,0,0,1-6.65-6.65V400.33A0,0,0,0,1,247.39,400.33Z"/><ellipse class="cls-18" cx="196.85" cy="343.22" rx="11.39" ry="14.86"/><path class="cls-18" d="M282.14,277.89s-16.37,29.42-73.9,29.42c0,0-2.67,15-11.39,20.29v14.94A65.13,65.13,0,0,0,262,407.67a66.72,66.72,0,0,0,10-.75,65.16,65.16,0,0,0,55.16-64.38V327.6S282.14,313,282.14,277.89Z"/><ellipse class="cls-18" cx="326.11" cy="343.22" rx="11.39" ry="14.86"/><path class="cls-17" d="M327.1,314v28.52a65.16,65.16,0,0,1-55.16,64.38,65.16,65.16,0,0,1-55.16-64.38V314c0-28.92,18.85-40.76,44.94-46.41a59.43,59.43,0,0,1,17.09-1.11c11.22.87,21.25.4,29.22,8.37C319.81,286.65,327.1,296,327.1,314Z"/><rect class="cls-4" x="226.81" y="327.93" width="14.1" height="23.37" rx="7.05"/><circle class="cls-9" cx="235.34" cy="334.77" r="3.71"/><rect class="cls-4" x="285.26" y="327.93" width="14.1" height="23.37" rx="7.05"/><circle class="cls-9" cx="293.79" cy="334.77" r="3.71"/><rect class="cls-18" x="252.72" y="350.83" width="18.51" height="10.32" rx="5.16"/><path class="cls-4" d="M276.23,368.16v3.36c0,.46,0,.92-.06,1.36a15,15,0,0,1-29.8,0c0-.44-.06-.9-.06-1.36v-3.36Z"/><path class="cls-19" d="M272.68,381.21a15,15,0,0,1-22.81,0,15,15,0,0,1,22.81,0Z"/><path class="cls-9" d="M276.23,368.16v3.36c0,.46,0,.92-.06,1.36h-29.8c0-.44-.06-.9-.06-1.36v-3.36Z"/><path class="cls-19" d="M278.63,460.33l-17.36,17.36L247,463.38l-3.05-3.05A10.11,10.11,0,1,1,258.21,446l3.06,3.05,3.06-3.05a10.11,10.11,0,1,1,14.3,14.3Z"/><path class="cls-20" d="M261.27,477.69,247,463.38l-3.05-3.05a10.11,10.11,0,0,1,6-17.19A45,45,0,0,0,261.27,477.69Z"/><path class="cls-12" d="M277.49,285.5c-9.64,13.93-36.22,42.86-82.08,42.86l12-47.69,31.68-21.44H292.3s40.89,12.93,34.8,69.13c0,0-36.64-16.54-43.76-41.94A3.28,3.28,0,0,0,277.49,285.5Z"/><path class="cls-13" d="M255.25,250a91,91,0,0,1-1.52,9.19,93.79,93.79,0,0,1-26,46.85,108.57,108.57,0,0,1-10.92,9.4,124.63,124.63,0,0,1-19.91,12.1h0l-1.42.69-.73.35c-1,.47-2.06.95-3.12,1.42V300.84a50.8,50.8,0,0,1,50.8-50.8Z"/><path class="cls-12" d="M192.86,133.12c-16.75,15.27-64.92,53-131.89,52.64L77.33,90l88.34-9L223.42,102s23.91,58.51,13.58,83.59c0,0-22-27.54-33.86-50.62A6.57,6.57,0,0,0,192.86,133.12Z"/><path class="cls-13" d="M135,80.94c-3.51,30.62-30.55,94.6-73.43,104.61l-.6.21H48.25V132.19A51.25,51.25,0,0,1,99.5,80.94Z"/></g></svg>