<?xml version="1.0" encoding="UTF-8"?>
<!DOCTYPE svg PUBLIC "-//W3C//DTD SVG 1.1//EN" "http://www.w3.org/Graphics/SVG/1.1/DTD/svg11.dtd">
<!-- Creator: CorelDRAW -->
<svg xmlns="http://www.w3.org/2000/svg" xml:space="preserve" width="6.82666in" height="6.82666in" style="shape-rendering:geometricPrecision; text-rendering:geometricPrecision; image-rendering:optimizeQuality; fill-rule:evenodd; clip-rule:evenodd"
viewBox="0 0 6.82666 6.82666"
 xmlns:xlink="http://www.w3.org/1999/xlink">
 <defs>
  <style type="text/css">
   <![CDATA[
    .fil2 {fill:none}
    .fil7 {fill:#0097A7}
    .fil5 {fill:#00ACC1}
    .fil13 {fill:#429BE3}
    .fil10 {fill:#42A5F5}
    .fil14 {fill:#564132}
    .fil11 {fill:#5A4038}
    .fil8 {fill:#5D4037}
    .fil6 {fill:#634C3A}
    .fil12 {fill:#90ECEC}
    .fil9 {fill:#99FFFF}
    .fil3 {fill:#A80000}
    .fil4 {fill:#D50000}
    .fil1 {fill:#FFB74D}
    .fil0 {fill:#FFCC80}
   ]]>
  </style>
   <clipPath id="id0">
    <path d="M3.41333 -3.93701e-006c1.88513,0 3.41333,1.5282 3.41333,3.41333 0,1.88513 -1.5282,3.41333 -3.41333,3.41333 -1.88513,0 -3.41333,-1.5282 -3.41333,-3.41333 0,-1.88513 1.5282,-3.41333 3.41333,-3.41333z"/>
   </clipPath>
 </defs>
 <g id="Layer_x0020_1">
  <metadata id="CorelCorpID_0Corel-Layer"/>
  <path class="fil0" d="M3.41333 -3.93701e-006c1.88513,0 3.41333,1.5282 3.41333,3.41333 0,1.88513 -1.5282,3.41333 -3.41333,3.41333 -1.88513,0 -3.41333,-1.5282 -3.41333,-3.41333 0,-1.88513 1.5282,-3.41333 3.41333,-3.41333z"/>
  <g style="clip-path:url(#id0)">
   <g id="_457198400">
    <g>
     <path id="_4433056241" class="fil1" d="M5.33296 6.6949l0 0zm-3.78627 -3.78627l0 0z"/>
     <polygon id="_443305576" class="fil1" points="5.28,2.90865 9.06627,6.69492 8.91331,6.91029 5.12704,3.12402 "/>
     <polygon id="_443305264" class="fil1" points="5.12704,3.12402 8.91331,6.91029 8.73043,6.78041 4.94416,2.99413 "/>
     <polygon id="_443305168" class="fil1" points="2.03483,1.92047 5.8211,5.70674 5.74593,5.70674 1.95966,1.92047 "/>
     <polygon id="_443305360" class="fil1" points="2.58571,1.84155 6.37198,5.62782 6.37198,5.70674 2.58571,1.92047 "/>
     <polygon id="_443305960" class="fil1" points="2.58571,1.92047 6.37198,5.70674 6.2968,5.70674 2.51054,1.92047 "/>
     <polygon id="_443305768" class="fil1" points="1.8825,2.99413 5.66877,6.78041 5.48589,6.91029 1.69962,3.12402 "/>
     <polygon id="_443305816" class="fil1" points="3.41333,5.24361 7.1996,9.02989 5.66877,9.02989 1.8825,5.24361 "/>
     <polygon id="_443305696" class="fil1" points="1.8825,5.24361 5.66877,9.02989 5.51176,9.02989 1.7255,5.24361 "/>
     <polygon id="_443273752" class="fil1" points="4.94416,5.24361 8.73043,9.02989 7.1996,9.02989 3.41333,5.24361 "/>
     <polygon id="_443273440" class="fil1" points="2.51054,1.92047 6.2968,5.70674 6.2968,6.01043 2.51054,2.22416 "/>
     <polygon id="_443273944" class="fil1" points="4.94416,2.99413 8.73043,6.78041 8.73043,8.87289 4.94416,5.08661 "/>
     <polygon id="_443273608" class="fil1" points="5.08298,5.11081 8.86925,8.89708 8.87261,8.90126 8.87553,8.90589 8.87804,8.91098 8.88017,8.91657 8.88195,8.92267 8.88342,8.9293 8.88459,8.93649 8.88552,8.94426 8.88622,8.95263 8.88673,8.96162 8.88707,8.97126 8.88728,8.98156 8.88739,8.99255 8.88744,9.00426 8.88744,9.01669 8.88743,9.02989 5.10117,5.24361 5.10117,5.23042 5.10117,5.21798 5.10113,5.20628 5.10102,5.19529 5.1008,5.18498 5.10046,5.17535 5.09995,5.16635 5.09925,5.15798 5.09833,5.15022 5.09715,5.14303 5.09568,5.13639 5.0939,5.1303 5.09177,5.12471 5.08926,5.11961 5.08634,5.11499 "/>
     <polygon id="_443273800" class="fil1" points="5.10117,5.24361 8.88743,9.02989 8.73043,9.02989 4.94416,5.24361 "/>
    </g>
    <path id="_457198328" class="fil1" d="M1.54669 2.90863l0 0zm1.86676 -1.32558l1.86656 1.3256 -0.152957 0.21537 -0.182886 -0.129882 0 2.09248c0.16085,0 0.157008,0.0121772 0.157008,0.157l-0.157008 0 -1.53083 0 -1.53083 0 -0.157008 0 0 -0.0785c0,-0.0431772 0.0353228,-0.0785 0.0784961,-0.0785l0.0785118 0 0 -2.09248 -0.182886 0.129882 -0.152953 -0.215417 0.488169 -0.346646 0 -0.64148 -0.0751772 0 0 -0.0789252 0.626051 0 0 0.0789252 -0.0751732 0 0 0.303685 0.902791 -0.641028 0.00011811 -8.26772e-005z"/>
   </g>
  </g>
  <path class="fil2" d="M3.41333 -3.93701e-006c1.88513,0 3.41333,1.5282 3.41333,3.41333 0,1.88513 -1.5282,3.41333 -3.41333,3.41333 -1.88513,0 -3.41333,-1.5282 -3.41333,-3.41333 0,-1.88513 1.5282,-3.41333 3.41333,-3.41333z"/>
  <rect class="fil3" x="2.03483" y="1.84155" width="0.4757" height="0.777797"/>
  <rect class="fil4" x="1.95966" y="1.84155" width="0.626053" height="0.078926"/>
  <path class="fil5" d="M1.8825 2.87999l0 2.36363 3.06165 0 0 -2.38935 -1.49126 -1.0619 -0.613957 0.431783c-0.0733819,0.0516063 -0.147835,0.101622 -0.221831,0.152315 -0.217354,0.14889 -0.434673,0.297823 -0.651945,0.446835l-0.0826614 0.0566929z"/>
  <polygon class="fil4" points="5.28,2.90865 3.41344,1.58305 1.54667,2.90865 1.69962,3.12402 3.41333,1.90696 5.12704,3.12402 "/>
  <path class="fil6" d="M5.02267 5.08661l-3.21867 0c-0.0431732,0 -0.0784961,0.0353228 -0.0784961,0.0785l0 0.0785 3.37567 0 0 -0.0785c0,-0.0431772 -0.0353268,-0.0785 -0.0785,-0.0785z"/>
  <path class="fil7" d="M1.8825 2.87994l0 2.36363 1.53082 0 0 -3.42342 -0.574386 0.403953c-0.073378,0.0516063 -0.147835,0.101622 -0.221831,0.152315 -0.217354,0.14889 -0.434673,0.297823 -0.651941,0.446835l-0.0826654 0.0566929z"/>
  <polygon class="fil4" points="3.41333,1.58309 1.54667,2.9086 1.69962,3.12397 3.41333,1.90693 "/>
  <rect class="fil8" x="2.88566" y="3.20353" width="1.05534" height="1.05534"/>
  <rect class="fil9" x="2.99559" y="3.31345" width="0.835482" height="0.835481"/>
  <rect class="fil10" x="2.99559" y="3.31345" width="0.835482" height="0.835481"/>
  <rect class="fil4" x="2.80591" y="3.08626" width="1.21485" height="0.117263"/>
  <rect class="fil4" x="2.80591" y="4.25887" width="1.21485" height="0.117263"/>
  <polygon class="fil8" points="3.47196,4.25887 3.47196,3.20352 3.3547,3.20352 3.3547,4.25887 "/>
  <polygon class="fil11" points="3.41332,3.20346 2.88566,3.20346 2.88566,4.2588 3.41332,4.2588 "/>
  <polygon class="fil12" points="3.41332,3.31339 2.99559,3.31339 2.99559,4.14887 3.41332,4.14887 "/>
  <polygon class="fil13" points="3.41332,3.31339 2.99559,3.31339 2.99559,4.14887 3.41332,4.14887 "/>
  <polygon class="fil4" points="3.41332,3.20346 2.80591,3.20346 2.80591,3.08619 3.41332,3.08619 "/>
  <polygon class="fil4" points="3.41332,4.37606 2.80591,4.37606 2.80591,4.2588 3.41332,4.2588 "/>
  <polygon class="fil11" points="3.41332,3.20346 3.3547,3.20346 3.3547,4.2588 3.41332,4.2588 "/>
  <path class="fil14" d="M3.41333 5.08661l-0.000661417 0 -1.60868 0c-0.0431732,0 -0.0784961,0.0353228 -0.0784961,0.0785l0 0.0785 1.68724 0 0.000590551 0 0 -0.157z"/>
 </g>
</svg>
