<?xml version="1.0" encoding="UTF-8"?>
<!DOCTYPE svg PUBLIC "-//W3C//DTD SVG 1.1//EN" "http://www.w3.org/Graphics/SVG/1.1/DTD/svg11.dtd">
<!-- Creator: CorelDRAW -->
<svg xmlns="http://www.w3.org/2000/svg" xml:space="preserve" width="2048px" height="2048px" style="shape-rendering:geometricPrecision; text-rendering:geometricPrecision; image-rendering:optimizeQuality; fill-rule:evenodd; clip-rule:evenodd"
viewBox="0 0 2048 2048"
 xmlns:xlink="http://www.w3.org/1999/xlink">
 <defs>
  <style type="text/css">
   <![CDATA[
    .fil2 {fill:none}
    .fil6 {fill:#263238}
    .fil5 {fill:#37474F}
    .fil1 {fill:#43A047}
    .fil3 {fill:#4E342E}
    .fil13 {fill:#6D4C41}
    .fil0 {fill:#81C784}
    .fil14 {fill:#E0F7FA}
    .fil15 {fill:#E3F2FD}
    .fil8 {fill:#2196F3;fill-rule:nonzero}
    .fil11 {fill:#424242;fill-rule:nonzero}
    .fil4 {fill:#4E342E;fill-rule:nonzero}
    .fil12 {fill:#6D4C41;fill-rule:nonzero}
    .fil10 {fill:#AEEA00;fill-rule:nonzero}
    .fil9 {fill:#F50057;fill-rule:nonzero}
    .fil7 {fill:#FF5722;fill-rule:nonzero}
   ]]>
  </style>
   <clipPath id="id0">
    <path d="M1024 -0.0011811c565.539,0 1024,458.462 1024,1024 0,565.539 -458.462,1024 -1024,1024 -565.539,0 -1024,-458.462 -1024,-1024 0,-565.539 458.462,-1024 1024,-1024z"/>
   </clipPath>
 </defs>
 <g id="Layer_x0020_1">
  <metadata id="CorelCorpID_0Corel-Layer"/>
  <path class="fil0" d="M1024 -0.0011811c565.539,0 1024,458.462 1024,1024 0,565.539 -458.462,1024 -1024,1024 -565.539,0 -1024,-458.462 -1024,-1024 0,-565.539 458.462,-1024 1024,-1024z"/>
  <g style="clip-path:url(#id0)">
   <g id="_451252568">
    <g>
     <polygon id="_3370571761" class="fil1" points="1505.6,1151.15 2641.48,2287.03 2293.32,2287.03 1157.44,1151.15 "/>
     <polygon id="_337056792" class="fil1" points="1584,1268.14 2719.88,2404.02 2719.88,2600.05 1584,1464.17 "/>
     <polygon id="_337057752" class="fil1" points="1584,1464.17 2719.88,2600.05 2719.77,2602.34 2719.43,2604.56 2718.87,2606.71 2718.12,2608.77 2717.18,2610.72 2716.06,2612.57 2714.77,2614.3 2713.32,2615.89 2711.73,2617.33 2710.01,2618.62 2708.16,2619.74 2706.2,2620.69 2704.14,2621.44 2702,2621.99 2699.77,2622.33 2697.48,2622.45 1561.6,1486.56 1563.89,1486.45 1566.11,1486.11 1568.26,1485.56 1570.32,1484.81 1572.28,1483.86 1574.12,1482.74 1575.85,1481.45 1577.44,1480 1578.89,1478.41 1580.18,1476.69 1581.3,1474.84 1582.24,1472.88 1582.99,1470.83 1583.55,1468.68 1583.89,1466.46 "/>
     <polygon id="_337058016" class="fil1" points="1157.44,1151.15 2293.32,2287.03 2293.32,2321.47 1157.44,1185.58 "/>
     <polygon id="_337057560" class="fil1" points="1260.09,1218.41 2395.97,2354.3 2396.14,2354.61 2396.14,2354.96 2395.99,2355.36 2395.69,2355.79 2395.25,2356.25 2394.68,2356.73 2393.99,2357.24 2393.18,2357.76 2392.26,2358.29 2391.25,2358.84 2390.14,2359.38 2388.96,2359.92 2387.7,2360.45 2386.38,2360.98 2385,2361.48 2383.58,2361.97 2382.11,2362.43 2380.62,2362.86 2379.1,2363.26 2377.57,2363.61 2376.04,2363.92 2374.51,2364.18 2372.99,2364.4 2371.49,2364.55 2370.01,2364.63 2368.58,2364.66 2367.19,2364.61 2365.85,2364.48 2364.58,2364.27 2363.37,2363.97 1227.49,1228.09 1228.7,1228.39 1229.97,1228.6 1231.31,1228.72 1232.7,1228.77 1234.13,1228.75 1235.61,1228.66 1237.11,1228.51 1238.63,1228.3 1240.16,1228.04 1241.69,1227.73 1243.22,1227.37 1244.74,1226.98 1246.23,1226.55 1247.7,1226.09 1249.12,1225.6 1250.5,1225.1 1251.82,1224.57 1253.08,1224.04 1254.26,1223.5 1255.36,1222.95 1256.38,1222.41 1257.29,1221.88 1258.1,1221.36 1258.8,1220.85 1259.37,1220.36 1259.81,1219.9 1260.11,1219.47 1260.26,1219.08 1260.26,1218.72 "/>
     <polygon id="_337057680" class="fil1" points="890.562,1151.15 2026.44,2287.03 1678.28,2287.03 542.399,1151.15 "/>
     <polygon id="_337058088" class="fil1" points="837.334,1228.09 1973.21,2363.97 1972.01,2364.27 1970.74,2364.48 1969.4,2364.61 1968.01,2364.66 1966.57,2364.63 1965.1,2364.55 1963.6,2364.4 1962.08,2364.18 1960.55,2363.92 1959.01,2363.61 1957.48,2363.26 1955.97,2362.86 1954.47,2362.43 1953.01,2361.97 1951.59,2361.48 1950.21,2360.98 1948.89,2360.45 1947.63,2359.92 1946.45,2359.38 1945.34,2358.84 1944.33,2358.29 1943.41,2357.76 1942.6,2357.24 1941.91,2356.73 1941.34,2356.25 805.457,1220.36 806.029,1220.85 806.723,1221.36 807.533,1221.88 808.449,1222.41 809.463,1222.95 810.566,1223.5 811.75,1224.04 813.008,1224.57 814.328,1225.1 815.705,1225.6 817.13,1226.09 818.593,1226.55 820.087,1226.98 821.604,1227.37 823.133,1227.73 824.669,1228.04 826.201,1228.3 827.721,1228.51 829.221,1228.66 830.694,1228.75 832.129,1228.77 833.519,1228.72 834.856,1228.6 836.13,1228.39 "/>
     <polygon id="_337058136" class="fil1" points="1227.49,1228.09 2363.37,2363.97 2350.67,2360.38 2338.06,2357.02 2325.55,2353.89 2313.12,2350.99 2300.78,2348.32 2288.5,2345.89 2276.29,2343.68 2264.14,2341.71 2252.05,2339.97 2240,2338.47 2227.98,2337.19 2216.01,2336.15 2204.06,2335.34 2192.12,2334.76 2180.21,2334.41 2168.29,2334.29 2156.38,2334.41 2144.46,2334.76 2132.53,2335.34 2120.58,2336.15 2108.6,2337.19 2096.59,2338.47 2084.54,2339.97 2072.45,2341.71 2060.3,2343.68 2048.09,2345.89 2035.81,2348.32 2023.46,2350.99 2011.04,2353.89 1998.52,2357.02 1985.92,2360.38 1973.21,2363.97 837.334,1228.09 850.038,1224.5 862.644,1221.14 875.156,1218 887.584,1215.11 899.931,1212.44 912.206,1210 924.415,1207.8 936.565,1205.83 948.662,1204.09 960.712,1202.58 972.722,1201.31 984.701,1200.26 996.652,1199.45 1008.58,1198.87 1020.5,1198.52 1032.41,1198.41 1044.33,1198.52 1056.24,1198.87 1068.17,1199.45 1080.13,1200.26 1092.1,1201.31 1104.11,1202.58 1116.17,1204.09 1128.26,1205.83 1140.41,1207.8 1152.62,1210 1164.89,1212.44 1177.24,1215.11 1189.67,1218 1202.18,1221.14 1214.79,1224.5 "/>
     <polygon id="_337057896" class="fil1" points="598.405,1486.56 1734.29,2622.45 1734.29,2642.5 598.405,1506.62 "/>
     <polygon id="_337057920" class="fil1" points="553.603,1486.56 1689.48,2622.45 1622.28,2622.45 486.4,1486.56 "/>
     <polygon id="_337058880" class="fil1" points="576.004,1523.58 1711.89,2659.47 1709.6,2659.38 1707.37,2659.12 1705.22,2658.7 1703.17,2658.13 1701.21,2657.42 1699.36,2656.57 1697.64,2655.59 1696.05,2654.5 1694.6,2653.29 558.719,1517.41 560.164,1518.62 561.755,1519.71 563.48,1520.69 565.327,1521.54 567.285,1522.25 569.343,1522.82 571.49,1523.24 573.714,1523.5 "/>
     <polygon id="_337058568" class="fil1" points="598.405,1506.62 1734.29,2642.5 1734.17,2644.24 1733.83,2645.92 1733.28,2647.55 1732.52,2649.11 1731.58,2650.59 1730.46,2651.99 1729.17,2653.29 1727.72,2654.5 1726.13,2655.59 1724.41,2656.57 1722.56,2657.42 1720.6,2658.13 1718.55,2658.7 1716.4,2659.12 1714.18,2659.38 1711.89,2659.47 576.004,1523.58 578.294,1523.5 580.518,1523.24 582.665,1522.82 584.723,1522.25 586.681,1521.54 588.528,1520.69 590.253,1519.71 591.844,1518.62 593.289,1517.41 594.579,1516.1 595.701,1514.71 596.644,1513.22 597.397,1511.66 597.95,1510.04 598.289,1508.35 "/>
     <polygon id="_337058232" class="fil1" points="486.4,1486.56 1622.28,2622.45 1619.99,2622.33 1617.77,2621.99 1615.62,2621.44 1613.56,2620.69 1611.6,2619.74 1609.76,2618.62 1608.03,2617.33 472.151,1481.45 473.875,1482.74 475.722,1483.86 477.681,1484.81 479.738,1485.56 481.885,1486.11 484.109,1486.45 "/>
     <polygon id="_337058520" class="fil1" points="1522.89,532.568 2658.77,1668.45 2660.06,1670.17 2661.18,1672.02 2662.12,1673.98 2662.87,1676.04 2663.43,1678.18 2663.77,1680.41 2663.88,1682.7 1528,546.815 1527.88,544.525 1527.55,542.301 1526.99,540.154 1526.24,538.096 1525.3,536.138 1524.17,534.292 "/>
     <polygon id="_337058448" class="fil1" points="1528,546.815 2663.88,1682.7 2663.88,2192.59 1528,1056.71 "/>
     <polygon id="_337058760" class="fil1" points="1528,1056.71 2663.88,2192.59 2663.88,2264.63 1528,1128.75 "/>
     <polygon id="_337058400" class="fil1" points="1528,1128.75 2663.88,2264.63 2663.77,2266.92 2663.43,2269.15 2662.87,2271.29 2662.12,2273.35 2661.18,2275.31 2660.06,2277.16 2658.77,2278.88 2657.32,2280.47 2655.73,2281.92 2654.01,2283.21 2652.16,2284.33 2650.2,2285.27 2648.14,2286.02 2646,2286.58 2643.77,2286.92 2641.48,2287.03 1505.6,1151.15 1507.89,1151.03 1510.11,1150.69 1512.26,1150.14 1514.32,1149.39 1516.28,1148.45 1518.12,1147.32 1519.85,1146.03 1521.44,1144.59 1522.89,1143 1524.17,1141.27 1525.3,1139.43 1526.24,1137.47 1526.99,1135.41 1527.55,1133.26 1527.88,1131.04 "/>
     <polygon id="_337058592" class="fil1" points="1577.44,1252.3 2713.32,2388.18 2714.77,2389.77 2716.06,2391.5 2717.18,2393.34 2718.12,2395.3 2718.87,2397.36 2719.43,2399.51 2719.77,2401.73 2719.88,2404.02 1584,1268.14 1583.89,1265.85 1583.55,1263.62 1582.99,1261.48 1582.24,1259.42 1581.3,1257.46 1580.18,1255.61 1578.89,1253.89 "/>
     <polygon id="_337058616" class="fil1" points="1494.4,1486.56 2630.28,2622.45 2630.28,2642.5 1494.4,1506.62 "/>
     <polygon id="_337058712" class="fil1" points="1561.6,1486.56 2697.48,2622.45 2630.28,2622.45 1494.4,1486.56 "/>
     <polygon id="_337058832" class="fil1" points="542.399,1151.15 1678.28,2287.03 1675.99,2286.92 1673.77,2286.58 1671.62,2286.02 1669.56,2285.27 1667.6,2284.33 1665.76,2283.21 1664.03,2281.92 528.152,1146.03 529.876,1147.32 531.722,1148.45 533.68,1149.39 535.738,1150.14 537.885,1150.69 540.109,1151.03 "/>
     <polygon id="_337059480" class="fil1" points="1449.6,1486.56 2585.48,2622.45 1734.29,2622.45 598.405,1486.56 "/>
     <polygon id="_337059504" class="fil1" points="1472,1523.58 2607.88,2659.47 2605.59,2659.38 2603.36,2659.12 2601.22,2658.7 2599.16,2658.13 2597.2,2657.42 2595.35,2656.57 2593.63,2655.59 2592.04,2654.5 2590.59,2653.29 1454.71,1517.41 1456.16,1518.62 1457.75,1519.71 1459.47,1520.69 1461.32,1521.54 1463.28,1522.25 1465.33,1522.82 1467.48,1523.24 1469.71,1523.5 "/>
     <polygon id="_337058976" class="fil1" points="1494.4,1506.62 2630.28,2642.5 2630.16,2644.24 2629.82,2645.92 2629.27,2647.55 2628.52,2649.11 2627.57,2650.59 2626.45,2651.99 2625.16,2653.29 2623.72,2654.5 2622.13,2655.59 2620.4,2656.57 2618.55,2657.42 2616.6,2658.13 2614.54,2658.7 2612.39,2659.12 2610.17,2659.38 2607.88,2659.47 1472,1523.58 1474.29,1523.5 1476.51,1523.24 1478.66,1522.82 1480.71,1522.25 1482.67,1521.54 1484.52,1520.69 1486.24,1519.71 1487.84,1518.62 1489.28,1517.41 1490.57,1516.1 1491.69,1514.71 1492.64,1513.22 1493.39,1511.66 1493.94,1510.04 1494.28,1508.35 "/>
    </g>
    <path id="_451252904" class="fil1" d="M486.4 1245.74l1075.2 0c12.3709,0 22.4008,10.0299 22.4008,22.4008l0 196.028c0,12.3709 -10.0299,22.3996 -22.4008,22.3996l-67.2036 0 0 20.0551c0,9.36851 -10.0299,16.9642 -22.4008,16.9642 -12.3709,0 -22.4008,-7.59568 -22.4008,-16.9642l0 -20.0551 -851.19 0 0 20.0551c0,9.36851 -10.0299,16.9642 -22.4008,16.9642 -12.3709,0 -22.4008,-7.59568 -22.4008,-16.9642l0 -20.0551 -67.2036 0c-12.3709,0 -22.4008,-10.0287 -22.4008,-22.3996l0 -196.028c0,-12.3709 10.0299,-22.4008 22.4008,-22.4008zm55.9996 -721.321l963.202 0c12.3709,0 22.3996,10.0287 22.3996,22.3996l0 509.896 0 72.0367c0,12.3709 -10.0287,22.4008 -22.3996,22.4008l-348.163 0 0 34.4339c16.9465,3.21614 34.128,7.07127 51.639,11.5654 8.47323,2.17441 39.5303,14.3351 50.1414,20.7945 6.61064,1.92284 -19.2886,13.7669 -31.7256,10.1492 -136.065,-39.5776 -254.092,-39.5776 -390.159,0 -12.437,3.61772 -38.3351,-8.22638 -31.7244,-10.1492 10.611,-6.45945 41.667,-18.6201 50.1414,-20.7945 11.7425,-3.01299 23.3374,-5.74016 34.8118,-8.17914l0 -37.8201 -348.163 0c-12.3709,0 -22.3996,-10.0299 -22.3996,-22.4008l0 -72.0367 0 -509.896c0,-12.3709 10.0287,-22.3996 22.3996,-22.3996z"/>
   </g>
  </g>
  <path class="fil2" d="M1024 -0.0011811c565.539,0 1024,458.462 1024,1024 0,565.539 -458.462,1024 -1024,1024 -565.539,0 -1024,-458.462 -1024,-1024 0,-565.539 458.462,-1024 1024,-1024z"/>
  <rect class="fil3" x="481.5" y="1264.8" width="1085" height="202.709"/>
  <path class="fil4" d="M553.603 1506.62c0,9.36969 10.0299,16.9654 22.4008,16.9654 12.3709,0 22.4008,-7.59568 22.4008,-16.9654l0 -37.1504c0,-9.36969 -10.0299,-16.9665 -22.4008,-16.9665 -12.3709,0 -22.4008,7.59686 -22.4008,16.9665l0 37.1504z"/>
  <path class="fil4" d="M1449.6 1506.62c0,9.36969 10.0299,16.9654 22.4008,16.9654 12.3709,0 22.4008,-7.59568 22.4008,-16.9654l0 -37.1504c0,-9.36969 -10.0299,-16.9665 -22.4008,-16.9665 -12.3709,0 -22.4008,7.59686 -22.4008,16.9665l0 37.1504z"/>
  <rect class="fil5" x="890.562" y="1136.23" width="266.875" height="58.3221"/>
  <path class="fil5" d="M542.399 524.416l963.202 0c12.3709,0 22.3996,10.0287 22.3996,22.3996l0 581.933c0,12.3709 -10.0287,22.4008 -22.3996,22.4008l-963.202 0c-12.3709,0 -22.3996,-10.0299 -22.3996,-22.4008l0 -581.933c0,-12.3709 10.0287,-22.3996 22.3996,-22.3996z"/>
  <path class="fil6" d="M1528 1056.71l0 72.0367c0,12.3709 -10.0287,22.4008 -22.3996,22.4008l-963.202 0c-12.3709,0 -22.3996,-10.0299 -22.3996,-22.4008l0 -72.0367 1008 0z"/>
  <polygon class="fil7" points="1392.07,1091.75 1404.47,1091.75 1404.47,1106.35 1404.47,1118 1392.07,1118 1392.07,1106.35 "/>
  <polygon class="fil8" points="1416.14,1091.75 1428.53,1091.75 1428.53,1106.35 1428.53,1118 1416.14,1118 1416.14,1106.35 "/>
  <polygon class="fil9" points="1440.2,1091.75 1452.6,1091.75 1452.6,1106.35 1452.6,1118 1440.2,1118 1440.2,1106.35 "/>
  <polygon class="fil10" points="1464.26,1091.75 1476.66,1091.75 1476.66,1106.35 1476.66,1118 1464.26,1118 1464.26,1106.35 "/>
  <polygon class="fil11" points="1483.2,1026.08 564.8,1026.08 564.8,569.216 1483.2,569.216 "/>
  <path class="fil12" d="M486.4 1245.74l1075.2 0c12.3709,0 22.4008,10.0299 22.4008,22.4008l0 196.028c0,12.3709 -10.0299,22.3996 -22.4008,22.3996l-1075.2 0c-12.3709,0 -22.4008,-10.0287 -22.4008,-22.3996l0 -196.028c0,-12.3709 10.0299,-22.4008 22.4008,-22.4008zm1052.8 44.8016l-1030.4 0 0 151.226 1030.4 0 0 -151.226z"/>
  <path class="fil12" d="M856 1289.88c0,-12.3709 -10.0299,-22.4008 -22.4008,-22.4008 -12.3709,0 -22.3996,10.0299 -22.3996,22.4008l0 173.64c0,12.3721 10.0287,22.4008 22.3996,22.4008 12.3709,0 22.4008,-10.0287 22.4008,-22.4008l0 -173.64z"/>
  <path class="fil12" d="M1236.8 1289.88c0,-12.3709 -10.0287,-22.4008 -22.3996,-22.4008 -12.3709,0 -22.4008,10.0299 -22.4008,22.4008l0 173.64c0,12.3721 10.0299,22.4008 22.4008,22.4008 12.3709,0 22.3996,-10.0287 22.3996,-22.4008l0 -173.64z"/>
  <polygon class="fil13" points="867.901,1302.44 1180.1,1302.44 1180.1,1429.86 867.901,1429.86 "/>
  <polygon class="fil14" points="564.8,1026.08 1483.2,1026.08 1483.2,569.216 564.8,569.216 "/>
  <path class="fil6" d="M1227.49 1228.09c12.437,3.61772 38.3362,-8.22638 31.7256,-10.1492 -10.611,-6.45945 -41.6681,-18.6201 -50.1414,-20.7945 -123.197,-31.617 -230.129,-31.617 -353.326,0 -8.47442,2.17441 -39.5303,14.3351 -50.1414,20.7945 -6.61064,1.92284 19.2874,13.7669 31.7244,10.1492 136.067,-39.5776 254.093,-39.5776 390.159,0z"/>
  <path class="fil13" d="M788.799 1429.86c-85.865,0 -171.732,0 -257.599,0l-10.4988 0 0 -127.426 278.597 0 0 127.426 -10.5 0z"/>
  <rect class="fil15" x="590.911" y="1361.05" width="138.177" height="10.2081"/>
  <path class="fil13" d="M1516.8 1429.86c-85.8662,0 -171.734,0 -257.599,0l-10.5 0 0 -127.426 278.597 0 0 127.426 -10.4988 0z"/>
  <rect class="fil15" x="1318.91" y="1361.05" width="138.177" height="10.2081"/>
  <rect class="fil15" x="954.912" y="1361.05" width="138.177" height="10.2081"/>
 </g>
</svg>
