<?xml version="1.0" encoding="UTF-8"?>
<!DOCTYPE svg PUBLIC "-//W3C//DTD SVG 1.1//EN" "http://www.w3.org/Graphics/SVG/1.1/DTD/svg11.dtd">
<!-- Creator: CorelDRAW -->
<svg xmlns="http://www.w3.org/2000/svg" xml:space="preserve" width="2048px" height="2048px" style="shape-rendering:geometricPrecision; text-rendering:geometricPrecision; image-rendering:optimizeQuality; fill-rule:evenodd; clip-rule:evenodd"
viewBox="0 0 2048 2048"
 xmlns:xlink="http://www.w3.org/1999/xlink">
 <defs>
  <style type="text/css">
   <![CDATA[
    .fil2 {fill:none}
    .fil11 {fill:#2B8DBC}
    .fil12 {fill:#2FA0D3}
    .fil1 {fill:#303F9F}
    .fil0 {fill:#3F51B5}
    .fil13 {fill:#585757}
    .fil4 {fill:#5FB3CF}
    .fil9 {fill:#6193A7}
    .fil3 {fill:#6CC2E0}
    .fil16 {fill:#6DBE4F}
    .fil10 {fill:#9A9B9C}
    .fil6 {fill:#9ECF7C}
    .fil5 {fill:#A67D6E}
    .fil15 {fill:#B4B4B4}
    .fil14 {fill:#C7C6C6}
    .fil8 {fill:#CECDCC}
    .fil17 {fill:#EE3537}
    .fil7 {fill:#FEFEFE}
   ]]>
  </style>
   <clipPath id="id0">
    <path d="M1024 -0.0011811c565.541,0 1024,458.461 1024,1024 0,565.541 -458.461,1024 -1024,1024 -565.541,0 -1024,-458.461 -1024,-1024 0,-565.541 458.461,-1024 1024,-1024z"/>
   </clipPath>
 </defs>
 <g id="Layer_x0020_1">
  <metadata id="CorelCorpID_0Corel-Layer"/>
  <path class="fil0" d="M1024 -0.0011811c565.541,0 1024,458.461 1024,1024 0,565.541 -458.461,1024 -1024,1024 -565.541,0 -1024,-458.461 -1024,-1024 0,-565.541 458.461,-1024 1024,-1024z"/>
  <g style="clip-path:url(#id0)">
   <g id="_452507984">
    <path id="_4525240401" class="fil1" d="M1099.14 675.931l-2.04213 2.19685 -1.76575 1.88268 -0.402756 0.426378 -0.387402 0.412205 -0.373229 0.396851 -0.360236 0.382677c-0.470079,0.500788 -0.905906,0.966142 -1.30984,1.40551 -0.405118,0.438189 -0.779528,0.850394 -1.12913,1.24252 -0.349607,0.393307 -0.67441,0.768898 -0.980316,1.13268 -0.304725,0.364961 -0.590552,0.719292 -0.862205,1.07126 -0.270473,0.35315 -0.527953,0.703938 -0.774804,1.06299 -0.246851,0.357874 -0.485433,0.724016 -0.720473,1.10433 -0.233858,0.380315 -0.465355,0.778347 -0.696851,1.19764 -0.231496,0.420473 -0.464174,0.864568 -0.703938,1.34055 -0.239764,0.475985 -0.485433,0.98504 -0.742914,1.53425 -0.257481,0.549213 -0.527953,1.14095 -0.814961,1.7811 -0.287008,0.640158 -0.590552,1.32874 -0.915355,2.07638l-1.05 2.42362 -0.287008 0.666142 -0.298819 0.692127 -0.308268 0.718111 -0.32126 0.745276c-0.720473,0.962599 -1.43504,1.92992 -2.1437,2.90197 -0.708662,0.972048 -1.41378,1.95 -2.11063,2.9315 -0.698032,0.982678 -1.38898,1.9689 -2.0752,2.96103 -0.686221,0.992127 -1.36654,1.98898 -2.03977,2.99055 -0.67441,1.00158 -1.34173,2.00906 -2.00433,3.02008 -0.662599,1.01102 -1.31811,2.02677 -1.9689,3.04725 -0.650788,1.02047 -1.29567,2.04685 -1.93347,3.07677 -0.637796,1.02992 -1.26969,2.06575 -1.89567,3.10512 -0.625985,1.03937 -1.24606,2.08347 -1.85906,3.13347 -0.612993,1.04882 -1.22126,2.10236 -1.82244,3.16063 -0.601182,1.05827 -1.1941,2.12008 -1.78347,3.1878 -0.588189,1.06772 -1.17165,2.13898 -1.74685,3.21614 -0.575197,1.07599 -1.14449,2.15788 -1.70788,3.24331 -0.563386,1.08543 -1.11969,2.17441 -1.6689,3.26929 -0.550394,1.09488 -1.0937,2.19331 -1.62992,3.29646 -0.537402,1.10315 -1.06536,2.20984 -1.58977,3.32244 -0.523229,1.1126 -1.04055,2.22874 -1.55079,3.34961 -0.510237,1.12087 -1.01339,2.24646 -1.51063,3.37559 -0.497244,1.12913 -0.986221,2.26181 -1.46929,3.4004 -0.483071,1.1374 -0.957875,2.28071 -1.42795,3.42638 -0.468898,1.14685 -0.93189,2.29725 -1.3878,3.45236 -0.455906,1.15512 -0.904725,2.31378 -1.34528,3.47717 -0.441733,1.16339 -0.876379,2.33032 -1.30394,3.50197 -0.427559,1.17165 -0.846851,2.34567 -1.26024,3.52559 -0.413386,1.17992 -0.819686,2.36457 -1.2189,3.55158 -0.399213,1.18819 -0.790158,2.37874 -1.17402,3.57402 -0.38504,1.19528 -0.761812,2.39646 -1.1315,3.6 -0.369685,1.20354 -0.733465,2.41181 -1.0878,3.62244 -0.355512,1.21181 -0.702756,2.42717 -1.04291,3.64607 -0.340158,1.2189 -0.673229,2.44134 -0.998032,3.66851 -0.324803,1.22599 -0.643701,2.45906 -0.95315,3.69331 -0.31063,1.23543 -0.612993,2.47205 -0.908268,3.71457l-0.477166 2.03977 -0.46063 2.03977 -0.446457 2.03858 -0.431103 2.03977 -0.415748 2.03858 -0.400394 2.03858 -0.38504 2.0374 -0.370866 2.03858 -0.355512 2.03622 -0.340158 2.0374c-0.111024,0.679134 -0.220866,1.35709 -0.325985,2.03622l-0.31063 2.03504 -0.295276 2.03386 -0.281103 2.03386 -0.265748 2.03268 -0.251575 2.0315 -0.236221 2.0315 -0.222047 2.02914 -0.206693 2.02914 -0.19252 2.02795 -0.178347 2.02559 -0.162992 2.02441 -0.148819 2.02441 -0.134646 2.02205 -0.120473 2.02087 -0.105118 2.01851 -0.090945 2.01732 -0.0767717 2.01614 -0.0625985 2.01378 -0.0484252 2.0126 -0.034252 2.01024 -0.0200788 2.00906c-0.00826772,1.31575 -0.00826772,2.62914 0.00236221,3.94252 0.00944883,1.31221 0.0283465,2.62323 0.0555119,3.93307 0.0271654,1.30984 0.0649607,2.61851 0.109843,3.92599 0.046063,1.30748 0.100394,2.6126 0.164173,3.91654 0.0637796,1.30394 0.135827,2.60669 0.217323,3.90709 0.0814961,1.30039 0.17126,2.59961 0.270473,3.89764 0.0992127,1.29685 0.206693,2.59252 0.323622,3.88701 0.116929,1.29331 0.243307,2.58544 0.376772,3.87638 0.134646,1.28976 0.275197,2.57835 0.427559,3.86457 0.151181,1.28622 0.311811,2.57126 0.480709,3.85394 0.168898,1.28268 0.346063,2.56299 0.532678,3.84095 0.185433,1.27795 0.380315,2.55591 0.583465,3.82914 0.20315,1.27441 0.414567,2.54646 0.635434,3.81496 0.219685,1.26969 0.448819,2.53701 0.686221,3.80197 0.237402,1.26496 0.48189,2.52756 0.735827,3.7878 0.253937,1.26024 0.517323,2.51811 0.787796,3.77362 0.270473,1.25551 0.548032,2.50984 0.836221,3.75945 0.287008,1.25079 0.582284,2.49803 0.887009,3.74292 0.303544,1.24488 0.615355,2.4874 0.936615,3.72756 0.320079,1.24016 0.648426,2.47795 0.98504,3.71221 0.336614,1.23425 0.681497,2.46614 1.03465,3.69449 0.35315,1.22835 0.713386,2.45433 1.08307,3.67677 0.368504,1.22244 0.747638,2.44252 1.13268,3.66024 0.38504,1.21654 0.778347,2.43071 1.17874,3.64134 0.401575,1.21063 0.811418,2.4189 1.22835,3.62362 0.416929,1.20473 0.842127,2.40591 1.27441,3.60355 0.432284,1.19764 0.874016,2.3941 1.32284,3.58465 0.448819,1.19173 0.904725,2.37992 1.3689,3.56457 0.464174,1.18465 0.936615,2.36693 1.41614,3.54449 0.479528,1.17756 0.967324,2.35276 1.46221,3.52323 0.494882,1.17047 0.996851,2.3374 1.50827,3.50197 0.510237,1.16339 1.02756,2.32323 1.55433,3.48071l-514.746 0c-0.516142,0 -1.0252,0.0259843 -1.52835,0.0779528 -0.50315,0.0519685 -0.996851,0.127559 -1.48465,0.227953 -0.486615,0.100394 -0.966142,0.22441 -1.43504,0.370866 -0.468898,0.146457 -0.928347,0.315355 -1.37599,0.506693 -0.447638,0.190158 -0.887009,0.401575 -1.31102,0.633071 -0.425197,0.231496 -0.837402,0.483071 -1.23662,0.753544 -0.399213,0.270473 -0.785434,0.558662 -1.15512,0.865749 -0.370866,0.305906 -0.726379,0.629528 -1.06654,0.969686 -0.340158,0.340158 -0.66378,0.69567 -0.969686,1.06654 -0.305906,0.370866 -0.595276,0.755906 -0.865749,1.15512 -0.270473,0.399213 -0.522048,0.812599 -0.753544,1.2378 -0.231496,0.425197 -0.442914,0.862205 -0.633071,1.30984 -0.190158,0.447638 -0.359055,0.907087 -0.506693,1.37599 -0.146457,0.468898 -0.270473,0.947245 -0.370866,1.43504 -0.100394,0.486615 -0.177165,0.981497 -0.227953,1.48465 -0.0519685,0.50315 -0.0779528,1.01221 -0.0779528,1.52835l0 401.964c0,0.193701 0.00354331,0.386221 0.0106299,0.577559 0.00708662,0.191339 0.0188977,0.382677 0.0330709,0.572835 0.0141732,0.190158 0.0330709,0.379134 0.0543308,0.56693 0.0212599,0.187795 0.0472441,0.375591 0.0755906,0.561024l0.0708662 0.416929 0.011811 0.068504 0.0129921 0.068504c0.0354331,0.183071 0.0744095,0.367323 0.116929,0.548032 0.0413386,0.180709 0.0874016,0.361418 0.135827,0.539764 0.0484252,0.178347 0.100394,0.355512 0.155906,0.531496l-65.3186 0c-0.514961,0 -1.01929,0.0531496 -1.50591,0.153543 -0.486615,0.100394 -0.957875,0.248032 -1.40551,0.438189 -0.447638,0.190158 -0.874016,0.422835 -1.27323,0.693308 -0.399213,0.270473 -0.77126,0.577559 -1.11142,0.917717 -0.340158,0.340158 -0.647245,0.712205 -0.917717,1.11142 -0.270473,0.399213 -0.50315,0.825591 -0.693308,1.27323 -0.190158,0.447638 -0.337796,0.918898 -0.438189,1.40551 -0.100394,0.487796 -0.153543,0.990946 -0.153543,1.50709l0 18.0012c0,0.233858 0.00354331,0.467717 0.0106299,0.700394 0.00708662,0.232677 0.0177165,0.464174 0.0318898,0.694489 0.0141732,0.230315 0.0330709,0.46063 0.0543308,0.688583 0.0212599,0.229134 0.0448819,0.457087 0.0732284,0.683859 0.0283465,0.226772 0.0590552,0.453544 0.0944883,0.677953l0.0850394 0.50315 0.0141732 0.0838583 0.0153543 0.0838583c0.0413386,0.222047 0.0862205,0.442914 0.134646,0.66378l0.0188977 0.0826772 0.0188977 0.0814961 0.116929 0.49252c0.152362,0.61063 0.330709,1.21181 0.532678,1.80236l0.0011811 0c0.201969,0.590552 0.426378,1.16929 0.675591,1.73622l0.0011811 0c0.249213,0.56693 0.518504,1.12205 0.812599,1.66417l0.0011811 0c0.292914,0.542126 0.608268,1.07244 0.94252,1.58622 0.335433,0.51378 0.690945,1.01457 1.06536,1.49882 0.37441,0.484252 0.768898,0.954331 1.1811,1.40551l0.0011811 0c0.412205,0.451181 0.842127,0.88819 1.28858,1.30512l0.0011811 0c0.446457,0.416929 0.90945,0.816142 1.39016,1.19764l1132.26 1132.26 0.937796 1.11496 1.28976 1.30512 1.39016 1.19764 1.48583 1.08307 1.57323 0.961418 1.65354 0.833859 1.72559 0.696851 1.79291 0.555119 1.85197 0.405118 1.90394 0.248032 1.94882 0.0838583 819.142 0 1.94882 -0.0838583 1.90394 -0.248032 1.85197 -0.405118 1.79291 -0.555119 1.72677 -0.696851 1.65354 -0.833859 1.57323 -0.961418 1.48583 -1.08307 1.39016 -1.19764 1.29095 -1.30512 1.1811 -1.40551 1.06536 -1.49882 0.943702 -1.58622 0.81378 -1.66417 0.676772 -1.73622 0.532678 -1.80236 0.154725 -0.656693 0.134646 -0.66378 0.114567 -0.670867 0.0944883 -0.677953 0.0732284 -0.683859 0.0543308 -0.688583 0.0318898 -0.694489 0.0106299 -0.700394 0 -18.0012 -0.153543 -1.50709 -0.438189 -1.40551 -0.693308 -1.27323 -0.917717 -1.11142 -69.9378 -69.9378 0 -194.904 0.694489 0.174803 0.69567 0.172441 0.69567 0.17126 0.696851 0.170079 0.698032 0.167717 0.699213 0.166536 0.699213 0.164173 0.700394 0.162992 1.02047 0.220866 0.951969 0.214961 0.950788 0.211417 0.951969 0.209055 0.951969 0.205512 0.951969 0.200788 0.950788 0.198425 0.951969 0.196063 0.951969 0.191339 0.950788 0.188977 0.951969 0.185433 0.950788 0.18189 0.951969 0.178347 0.950788 0.174803 0.951969 0.172441 0.950788 0.168898 0.950788 0.165354 1.52244 0.258662 1.52244 0.249213 1.52244 0.242126 1.52244 0.232677 1.52126 0.225591 1.52126 0.216142 1.52008 0.207874 1.52126 0.200788 1.5189 0.191339 1.52008 0.183071 1.5189 0.175984 1.5189 0.166536 1.51772 0.158268 1.51654 0.151181 1.51772 0.141732 1.51536 0.134646 1.51654 0.125197 1.51417 0.11811 1.51417 0.109843 1.51299 0.101575 1.51299 0.0933072 1.51181 0.0850394 1.51181 0.0767717 1.51063 0.068504 1.50945 0.0614174 1.50827 0.0531496 1.50709 0.0448819 1.50709 0.0366142 1.50591 0.0283465 1.50473 0.0212599 1.50473 0.0129921 1.50236 0.00472441 0.00708662 0.00354331 0.00590552 0.00354331 0.00708662 0.0011811 0.00708662 0.0011811 0.00708662 -0.0011811 0.00708662 -0.0011811 0.00590552 -0.00236221 0.00708662 -0.00354331 6.16654 -0.0590552 6.14764 -0.190158 6.1252 -0.322441 6.10394 -0.452363 6.07796 -0.581103 6.05197 -0.709843 6.02363 -0.83504 5.99292 -0.962599 5.96221 -1.08543 5.92796 -1.21063 5.89371 -1.33228 5.85591 -1.45394 5.81693 -1.57441 5.77678 -1.69252 5.73426 -1.81181 5.69056 -1.92756 5.64449 -2.04449 5.59607 -2.15906 5.54764 -2.27244 5.49685 -2.38583 5.4437 -2.49685 5.38937 -2.60669 5.33268 -2.71654 5.27363 -2.8252 5.21457 -2.9315 5.15315 -3.03898 5.08937 -3.14292 5.02441 -3.24685 4.95827 -3.34961 4.88859 -3.45118 4.8189 -3.55158 4.74567 -3.65197 -9.44292 -9.44292 0.145276 -0.875198 0.411024 -3.44646 0.255118 -3.35906 0.113386 -3.27638 -0.0106299 -3.19961 -0.116929 -3.12756 -0.209055 -3.0626 -0.282284 -3.00118 -0.340158 -2.94803 -0.380315 -2.89725 -0.405118 -2.85473 -0.413386 -2.81693 -0.402756 -2.78504 -0.377953 -2.75788 -0.334252 -2.73662 -0.276378 -2.72126 -0.200788 -2.71181 -0.108662 -2.70709 0.0011811 -2.70827 0.126378 -2.71536 0.269292 -2.72835 0.427559 -2.74725 0.602363 -2.76969 0.796064 -2.79921 1.00394 -2.83465 1.22953 -2.87481 1.47165 -2.92205 1.73032 -2.97284 2.00669 -3.03071 2.29725 -3.09331 2.60669 -3.16181 -11.4177 -39.3024 7.93111 -23.0292 -82.6784 -82.6784 2.40236 -5.50867 -6.42756 -6.42756 -0.153543 -5.18032 36.3 -15.2079 3.76654 -15.8563 17.1555 -4.92402 5.98347 2.03386 12.4807 2.89016 11.002 -2.98937 8.57835 1.29213 19.6276 19.6276 22.128 11.4307 5.24056 5.24056 4.54725 1.05354 2.07756 -8.75906 12.2492 1.60748 13.6205 13.6205 22.3441 5.17441 1.15394 -0.648426 -0.0980316 -1.55315 -0.10748 -1.55197 -0.114567 -1.54961 -0.124016 -1.54843 -0.131102 -1.54725 -0.140551 -1.54488 -0.148819 -1.54252 -0.155906 -1.54134 -0.165354 -1.54016 -0.173622 -1.5378 -0.18189 -1.53662 -0.188977 -1.53425 -0.198425 -1.53189 -0.206693 -1.53071 -0.21378 -1.52835 -0.223229 -1.52599 0.392126 0.0838583 -0.630709 -4.29331 -0.69567 -4.27796 -0.758268 -4.26024 -0.823229 -4.2437 -0.885827 -4.22481 -0.948426 -4.20591 -1.01102 -4.18701 -1.07244 -4.16693 -1.13504 -4.14567 -1.19646 -4.12441 -1.25669 -4.10315 -1.31693 -4.07953 -1.37599 -4.05709 -1.4374 -4.03229 -1.49528 -4.00866 -1.55433 -3.98386 -1.61339 -3.9567 -1.67126 -3.93071 -1.72795 -3.90355 -1.78583 -3.87638 -1.84252 -3.84685 -1.89921 -3.81851 -1.95473 -3.78898 -2.01024 -3.75945 -2.06575 -3.72756 -2.12126 -3.69567 -2.17441 -3.66378 -2.22874 -3.63071 -2.28307 -3.59764 -2.33504 -3.56339 -2.38819 -3.52796 -2.44134 -3.4937 -7.43386 -7.43505 -1.08662 -1.41024 -3.91181 -4.85906 -4.01929 -4.7752 -4.12559 -4.69016 -4.22953 -4.60158 -4.33347 -4.51181 -4.43504 -4.41969 -4.53662 -4.32638 -4.63583 -4.22953 -3.79725 -3.31418 30.0933 30.0933 -1135.88 -1135.88c-1.31221,-1.5248 -2.64213,-3.03544 -3.9874,-4.53307l-0.138189 -0.157087 -0.204331 -0.222047c-1.2626,-1.40197 -2.54055,-2.79095 -3.83032,-4.16811l-0.194882 -0.211417 -0.178347 -0.185433c-1.31811,-1.40079 -2.65158,-2.78858 -3.99803,-4.16221l-0.157087 -0.164173 -0.0814961 -0.080315c-1.39961,-1.42559 -2.81575,-2.83701 -4.24843,-4.23426l-0.105118 -0.105118 -0.205512 -0.196063c-1.35473,-1.31693 -2.72244,-2.61969 -4.10433,-3.913l-0.226772 -0.217323 -0.287008 -0.261024c-1.35591,-1.26142 -2.72481,-2.50984 -4.10551,-3.74646l-0.243307 -0.222047 -0.170079 -0.148819c-1.50709,-1.34291 -3.02717,-2.67166 -4.56496,-3.98386 -1.5437,-1.31811 -3.10512,-2.61732 -4.67953,-3.90473l-0.152362 -0.127559 -0.232677 -0.185433c-1.45276,-1.18228 -2.91969,-2.35276 -4.39725,-3.50788l-0.297638 -0.237402 -0.269292 -0.204331c-1.50591,-1.17047 -3.02244,-2.32795 -4.55433,-3.47008l-0.199606 -0.152362 -0.103937 -0.0755906c-1.61221,-1.2 -3.2374,-2.3811 -4.87678,-3.54685l-0.134646 -0.0980316 -0.269292 -0.186614c-1.54134,-1.09252 -3.09567,-2.16969 -4.66181,-3.23386l-0.277559 -0.19252 -0.340158 -0.22441c-1.54843,-1.04528 -3.10984,-2.07874 -4.68307,-3.09567l-0.276378 -0.18189 -0.180709 -0.113386c-1.72205,-1.10906 -3.45827,-2.20394 -5.20867,-3.27756 -1.76221,-1.08189 -3.54095,-2.1437 -5.3315,-3.18898l-0.146457 -0.0874016 -0.218504 -0.124016c-1.69134,-0.983859 -3.39449,-1.95118 -5.10827,-2.90197l-0.237402 -0.134646 -0.225591 -0.121654c-1.71496,-0.946064 -3.44173,-1.87677 -5.18032,-2.78977l-0.245669 -0.132284 -0.12874 -0.0661418c-1.8378,-0.962599 -3.69095,-1.9063 -5.55709,-2.8311l-0.0496063 -0.0248032 -0.0968505 -0.0472441c-1.79764,-0.889371 -3.60827,-1.75984 -5.42953,-2.61378l-0.292914 -0.140551 -0.340158 -0.154725c-1.75394,-0.817323 -3.51969,-1.61693 -5.29489,-2.4l-0.266929 -0.121654 -0.178347 -0.0755906c-1.87441,-0.823229 -3.75827,-1.62874 -5.6563,-2.41299l-0.147638 -0.0614174 0 -0.0011811 -0.153543 -0.0614174c-1.88386,-0.777166 -3.77953,-1.53425 -5.68701,-2.27244l-0.222047 -0.0885827 -0.324803 -0.121654c-1.81654,-0.699213 -3.64252,-1.38189 -5.47914,-2.04567l-0.336614 -0.125197 -0.304725 -0.106299c-1.90394,-0.683859 -3.81969,-1.35 -5.74607,-1.99606l-0.167717 -0.0578741 -0.0826772 -0.0271654c-2.01969,-0.675591 -4.05118,-1.32756 -6.09331,-1.96181l-0.11811 -0.0377953 -0.219685 -0.0649607c-1.95118,-0.602363 -3.91181,-1.18228 -5.88308,-1.74567l-0.266929 -0.0791339 -0.307087 -0.0838583c-1.92874,-0.546851 -3.86811,-1.07362 -5.81575,-1.5815l-0.320079 -0.0874016 -0.222047 -0.0543308c-2.08583,-0.540945 -4.18347,-1.06063 -6.29292,-1.55788l-1.01457 -0.246851 -2.01732 -0.459449 -2.01732 -0.445276 -2.01732 -0.429922 -2.01732 -0.414567 -2.01732 -0.399213 -2.01614 -0.386221 -2.01732 -0.369685 -2.01614 -0.355512 -2.01496 -0.341339 -2.01614 -0.325985 -2.01378 -0.311811 -2.01496 -0.296457 -2.01378 -0.282284 -2.0126 -0.26811 -2.01142 -0.253937 -2.01142 -0.238583 -2.01024 -0.22441 -2.01024 -0.209055 -2.00788 -0.196063 -2.00788 -0.18189 -2.00551 -0.166536 -2.00551 -0.152362 -2.00433 -0.138189 -2.00197 -0.125197 -2.00197 -0.109843 -1.99961 -0.0956694 -1.99843 -0.0814961 -1.99606 -0.068504 -1.99606 -0.0531496 -1.9937 -0.0401575 -1.99134 -0.0259843 -1.99016 -0.011811 -0.0141732 -0.0011811 -0.0141732 0 -0.0129921 -0.0011811 -0.0141732 0 -0.0141732 0 -0.0141732 -0.0011811 -0.0141732 0 -0.0129921 -0.0011811 -0.0141732 0 -0.0141732 0 -0.0141732 0 -0.0141732 -0.0011811 -0.0141732 0 -0.0129921 0 -0.0141732 0 -0.0141732 0 -0.0141732 0 -0.0141732 -0.0011811 -0.0129921 0 -0.0141732 0 -0.0141732 0 -0.0141732 0 -0.0141732 0 -0.0129921 0.0011811 -0.0141732 0 -0.0141732 0 -0.0141732 0 -0.0141732 0 -0.0141732 0 -0.0129921 0 -0.0141732 0.0011811 -0.0141732 0c-1.19646,-0.0011811 -2.39173,0.00472441 -3.58701,0.0177165 -1.1941,0.0129921 -2.38819,0.034252 -3.57992,0.0625985 -1.19291,0.0283465 -2.38347,0.0625985 -3.57402,0.106299 -1.19055,0.0425197 -2.37874,0.0933072 -3.56693,0.151181 -1.18819,0.0578741 -2.37402,0.122835 -3.55985,0.196063 -1.18465,0.0720473 -2.36929,0.152362 -3.55158,0.239764 -1.18228,0.0874016 -2.36339,0.18189 -3.54331,0.283465 -1.17992,0.101575 -2.35866,0.210236 -3.53504,0.327166 -1.17638,0.115748 -2.35276,0.239764 -3.52677,0.370866 -1.17402,0.131102 -2.34685,0.26811 -3.51733,0.413386 -1.17047,0.145276 -2.33977,0.297638 -3.50788,0.455906 -1.16811,0.159449 -2.33386,0.325985 -3.49843,0.499607 -1.16457,0.173622 -2.32795,0.35315 -3.48898,0.540945 -1.16102,0.187795 -2.31969,0.383859 -3.47717,0.584646 -1.15748,0.201969 -2.3126,0.409843 -3.46654,0.625985 -1.15394,0.216142 -2.30551,0.437008 -3.45591,0.667323 -1.15039,0.229134 -2.29843,0.466536 -3.4441,0.709843 -1.14567,0.243307 -2.29016,0.493701 -3.43229,0.751182 -1.14213,0.257481 -2.28189,0.519685 -3.42048,0.791339 -1.1374,0.270473 -2.27362,0.549213 -3.40748,0.833859 -1.13386,0.284646 -2.26654,0.576378 -3.39567,0.874016 -1.12913,0.297638 -2.25591,0.602363 -3.3815,0.914174 -1.12441,0.311811 -2.24764,0.629528 -3.36733,0.954331 -1.11969,0.324803 -2.23937,0.656693 -3.35433,0.99567 -1.11496,0.337796 -2.22992,0.683859 -3.34016,1.03465 -1.11024,0.351969 -2.21929,0.708662 -3.32481,1.07362 -1.10551,0.364961 -2.20984,0.737008 -3.31063,1.11496 -1.10079,0.377953 -2.19921,0.761812 -3.2941,1.15276 -1.09606,0.390945 -2.18977,0.788977 -3.27992,1.19291 -1.09016,0.403937 -2.17795,0.81378 -3.26339,1.23071 -1.08425,0.416929 -2.16732,0.839764 -3.24685,1.26969l-1.34646 0.540945 -0.282284 -0.282284 -3.33544 -0.744095c-1.29331,0.517323 -2.58071,1.04291 -3.85985,1.57559 -1.28032,0.532678 -2.55355,1.07362 -3.81969,1.62165 -1.26614,0.548032 -2.52756,1.10197 -3.77953,1.66536 -1.25315,0.562205 -2.49921,1.13386 -3.73819,1.71142 -1.23898,0.577559 -2.47087,1.16221 -3.69685,1.75394 -1.22599,0.591733 -2.44488,1.19173 -3.6567,1.79764 -1.21181,0.605906 -2.4189,1.22126 -3.61654,1.84134 -1.19882,0.62126 -2.39055,1.24843 -3.5752,1.88268 -1.18465,0.634252 -2.36339,1.27677 -3.53386,1.9252 -1.17165,0.648426 -2.33504,1.30394 -3.49252,1.96654 -1.15748,0.662599 -2.30788,1.33228 -3.45236,2.00788 -1.14331,0.675591 -2.27953,1.35827 -3.40985,2.04803 -1.13032,0.689764 -2.25355,1.38425 -3.36969,2.08701 -1.11614,0.702756 -2.2252,1.41142 -3.32835,2.12717 -1.10197,0.715749 -2.19803,1.4374 -3.28701,2.16614 -1.08898,0.728741 -2.17087,1.46339 -3.24567,2.20512 -1.0748,0.741733 -2.14252,1.48937 -3.20433,2.24292 -1.06063,0.753544 -2.11536,1.51299 -3.16299,2.27953 -1.04764,0.766536 -2.08701,1.5378 -3.12047,2.31614 -1.03347,0.778347 -2.06103,1.5626 -3.08032,2.35394 -1.01929,0.790158 -2.0315,1.5874 -3.0378,2.38937 -1.00512,0.801969 -2.00551,1.61102 -2.99646,2.42481 -0.992127,0.81378 -1.97599,1.63347 -2.95394,2.45906 -0.977954,0.825591 -1.94882,1.65591 -2.9126,2.49331 -0.96378,0.837402 -1.92166,1.68071 -2.87126,2.52874 -0.949607,0.848032 -1.89331,1.70079 -2.82874,2.56063 -0.935434,0.858662 -1.86496,1.72559 -2.78622,2.59488 -0.921261,0.870473 -1.8378,1.74567 -2.74488,2.62677 -0.908268,0.881103 -1.80827,1.76575 -2.70236,2.65748 -0.894095,0.891733 -1.7811,1.78819 -2.66103,2.69055 -0.879922,0.901182 -1.75276,1.80827 -2.61851,2.72126 -0.864568,0.911812 -1.72323,1.82835 -2.57599,2.75079z"/>
   </g>
  </g>
  <path class="fil2" d="M1024 -0.0011811c565.541,0 1024,458.461 1024,1024 0,565.541 -458.461,1024 -1024,1024 -565.541,0 -1024,-458.461 -1024,-1024 0,-565.541 458.461,-1024 1024,-1024z"/>
  <g id="_464994952">
   <path id="_464999512" class="fil3" d="M1382.18 589.102c-0.354331,0 -0.712205,-0.121654 -1.06654,-0.243307 -21.8977,-5.07993 -43.8036,-7.52127 -65.3871,-7.5319 -131.896,-0.0649607 -251.712,90.6662 -283.505,224.899 -5.23701,21.9402 -7.85434,44.002 -7.97127,65.5808 -0.832678,132.112 89.0965,251.588 222.921,282.704 0.354331,0 0.712205,0.121654 1.07008,0.242126 155.355,35.413 310.947,-61.7623 347.942,-217.602 36.8717,-155.844 -58.8839,-311.443 -214.004,-348.048l0 -0.0011811z"/>
   <path id="_464996488" class="fil3" d="M1316.04 581.347c-132.038,-0.113386 -252.063,90.6213 -283.821,224.879 -5.23701,21.9402 -7.85434,44.002 -7.97127,65.5808 -0.832678,132.112 89.0965,251.588 222.921,282.704 0.354331,0 0.712205,0.121654 1.07008,0.242126 21.4134,4.88741 42.9426,7.15394 64.1174,7.27087l3.68386 -580.676z"/>
   <path id="_464993368" class="fil4" d="M1382.18 589.102c-0.354331,0 -0.712205,-0.121654 -1.06654,-0.243307 -21.6496,-5.00552 -43.3004,-7.38898 -64.7126,-7.51182 -0.116929,0 -0.233858,0 -0.359055,0l-3.68268 580.676c132.038,0.120473 251.942,-90.6166 283.825,-224.873 36.8717,-155.844 -58.8839,-311.443 -214.004,-348.048l0 -0.0011811z"/>
   <path id="_464994712" class="fil5" d="M1601.3 827.572c-6.4252,-46.265 -23.9091,-89.9044 -50.4378,-127.344l-4.28268 4.65118 -14.2713 2.1437 -6.90473 4.65118 -0.35315 7.27087 6.42048 2.50748 1.67126 11.0882 12.7287 -2.02677 -1.31221 14.0669 -3.45 -0.831497 -9.27993 -3.57992 -10.9453 -0.715749 -13.5543 12.1665 -15.2291 -1.0748 -4.99607 12.0437 5.70827 2.86181 -3.56693 7.62875 -13.9158 -6.3189 -13.9217 -0.11811 -4.63701 6.79489 -1.30866 16.0973 6.90001 5.48504 13.0831 2.97874 9.04253 1.19646 4.39961 -6.44174 18.0839 -14.7827 8.56182 3.93071 10.9417 -5.95748 0.125197 6.67323 18.554 20.0362 -3.57048 2.97874 -9.75473 -2.74252 2.5004 6.3189 5.82402 2.74252 7.85552 -1.31339 1.90394 -8.70001 3.57048 -0.838583 -1.90394 -3.33662 -12.7287 -11.687 -1.30866 -11.8028 12.2504 2.85945 2.97402 4.7693 8.32914 11.5689 -2.14488 11.0882 8.09056 14.191 7.85079 -15.026 8.56654 -2.38465 -1.66654 13.3547 5.47087 9.89646 14.0374 2.98229z"/>
   <path id="_464985352" class="fil6" d="M1492.69 1099.31c51.0296,-39.4666 88.0253,-96.5788 103.967,-164.186 6.53859,-27.6614 8.44135,-55.7989 7.01693,-82.8662l-1.30748 0.715749 -22.4799 -5.12599 -11.3043 -13.4776 -14.7496 -1.90748 -2.14134 8.8252 -4.52126 -1.0748 -4.16221 -4.65118 -23.4331 -12.1618 3.80315 -16.2142 -32.2323 -4.88741 -11.0669 2.97874 -12.6083 -2.86181 -5.94567 -2.1437 -17.3717 5.00552 -3.68268 15.9744 -36.6378 15.3851 0.357874 10.2543 6.3 1.42795 -3.80433 8.8252 -4.87914 0.598819 -5.94567 23.9658 19.7457 37.0772 11.6587 2.74252 1.19173 -1.66772 21.0543 4.89095 7.49174 -4.29331 11.8949 2.86063 4.99725 8.10946 17.4827 5.96103 -8.08701 23.2512 11.537 39.7028c-29.7331,34.4622 -3.45,56.0457 -12.9626,95.8666l10.8248 3.1004z"/>
   <polygon id="_465000232" class="fil7" points="1154.87,672.802 1153.32,670.3 1153.79,669.702 1155.7,671.729 "/>
   <path id="_464986528" class="fil7" d="M1205.06 604.602l1.18701 2.26654c0,0.23504 0,0.357874 -0.120473,0.472441l-0.707481 1.07362 0.232677 1.79055c0,0.121654 0,0.121654 0,0.121654l-0.116929 3.57284 0.354331 2.02677c0.121654,0.239764 0.596457,1.31457 0.71693,1.4315l0.474804 3.93544c0.237402,0.239764 0.833859,0.597638 0.474804,0.955513l-3.09095 4.05237c-0.120473,0.119291 -0.121654,0.237402 -0.359055,0.237402l-1.90394 0.239764c-0.237402,0.11811 -1.30394,0.715749 -1.54606,0.715749l-1.90394 0.239764c0,0.11811 -0.237402,0.477166 -0.47126,0.595276l-1.42795 0.714567c-0.242126,0.11811 -0.475985,-0.479528 -0.71693,-0.23504l-5.3504 7.03111 -0.357874 1.43268c0.116929,0.357874 0.237402,1.07362 0.115748,1.30984l-0.712205 0.951969 0.596457 1.19646c0.116929,0.236221 -0.116929,0.594095 -0.359055,0.594095l-0.829134 0.121654 -2.14134 2.74252c-0.242126,0.236221 -0.833859,0.236221 -1.19173,0.359055 -0.116929,0.23504 -0.354331,0.594095 -0.596457,0.594095l-0.832678 0.11811 -6.30355 8.22638 1.66654 2.02677c0.120473,0.239764 0.120473,0.475985 -0.0011811,0.597638l-1.18701 1.54606 0.591733 5.01378c0,0.113386 0,0.236221 -0.116929,0.236221l-1.19173 1.66772 -0.120473 2.50748c-0.116929,0.116929 -0.116929,0.11811 -0.116929,0.23504l-1.18701 1.55079c0,0.357874 0.116929,0.956694 0,1.19173l-2.7378 3.45945c-0.120473,0.23504 -0.829134,0.23504 -1.07126,0.357874l-6.54095 8.4626c-0.237402,0.240945 -1.42559,0.480709 -1.66654,0.240945l-6.4252 -4.88741 -3.20788 -3.34016 -9.39568 12.2835c-0.359055,0.354331 -0.601182,0.114567 -0.955513,-0.121654l-0.949607 1.43268c-0.120473,0.11811 -0.357874,0.236221 -0.474804,0.11811l-1.54961 -0.240945 -6.54213 2.86536 -1.30866 1.6689c0,0.116929 -0.120473,0.116929 -0.237402,0.116929l-1.90394 0.239764 -5.11654 6.67796 -0.116929 2.50276 0 0.121654 -0.357874 1.42795 0.832678 2.38465c0,0.11811 0,0.357874 -0.115748,0.475985l-3.92481 5.12717c-0.242126,0.357874 -0.596457,0.122835 -0.833859,0 -0.237402,0.239764 -0.479528,0.597638 -0.833859,0.239764l-0.832678 -0.598819 -4.99607 6.56103c-0.237402,0.238583 -0.829134,0.239764 -1.18819,0.357874l-1.19055 1.54961c-0.121654,0.239764 -0.833859,0.239764 -1.07126,0.239764l-1.66654 2.1437c-0.233858,0.240945 -0.833859,0.359055 -1.18819,0.359055l-7.13741 9.29764 -1.19055 15.0272 10.2284 26.4685 -5.8252 6.43701 6.30473 17.5299 23.1957 11.8039 0.949607 -3.93544 9.52087 3.69567 -2.61614 6.79843 18.6709 9.29764 12.2539 23.2512 21.1748 6.6815 -2.02441 18.1228 -17.2465 6.913 -4.40433 15.6213 -4.39961 9.17953 14.9882 31.7185 -0.596457 9.65552c0,0 7.25788,3.81733 8.20749,4.05709 0.955513,0.239764 14.3965,16.5732 14.3965,16.5732l-11.537 48.4099 5.47087 3.1004 -9.27993 21.3414 6.77953 15.5043 -7.13268 21.8162 7.61221 25.9925 13.2036 18.4831 16.7717 4.1752 2.85355 -5.00906 -9.87048 -13.2378 2.02087 -5.00315 3.6874 -5.84646 2.02087 -6.43701 -8.3256 -2.14606 -2.97402 -6.32126 8.56654 -5.12481 2.13662 -4.77048 -7.25316 -4.05473 1.66654 -4.52835 11.4165 0.832678 18.6744 -4.1752 8.09174 -9.06261 22.9536 -18.6 0.121654 -18.6 7.61221 -8.10827 16.0583 4.29213 12.9709 -6.19607 11.6587 -33.2681 15.6957 -12.5209 4.52126 -9.4193 -10.2295 -6.20079 -4.39961 -13.591 -24.8587 -6.08268 -17.85 -12.0402 2.38347 -14.3114 -3.92953 -13.115 -17.7201 -4.41024 -6.4252 -18.6036 -8.0882 -6.55867 -1.66181 4.77284 -16.8957 -2.86063 -4.04174 -9.89646 -16.5378 -7.63347 -18.1996 13.3547 -21.6461 -9.06142 4.39961 -25.8756 -15.8209 -6.67678 9.63308 -10.9701 -0.232677 -7.51064 -24.9874 9.4193 -13.2047 -4.7693 -2.3752 -11.8039 5.59252 -10.2543 10.8248 -12.1618 19.2709 -4.7693 33.3036 7.74804 -2.49567 10.1362 10.5839 8.34449 3.21614 -17.6433 10.7043 -6.68032 20.1 -7.39016 3.09213 -7.86851 21.6543 -14.0717 20.9327 -5.96103 -1.30394 -1.78583 15.2244 -8.8252 4.27914 2.26536 1.54606 3.10158 7.25906 -4.41142 -9.8752 -4.89095 1.19173 -5.12717 3.32835 -1.66772 6.1878 1.42795 2.49567 1.90866 1.31339 5.48504 3.09095 0.236221 0.116929 -0.472441 9.75355 1.18819 2.26299 -3.93071 4.51654 2.38465 -1.07008 4.52835 -5.23347 2.14488 -0.591733 5.24882 14.5075 8.46379 0 0.239764 3.69213 0.475985 1.9004 -6.79489 -7.37127 -5.60788 1.66299 -6.913 5.82874 -0.598819 2.85473 -9.77363 -9.27993 -9.06497 3.33307 -16.9276 -16.5366 3.93071 -5.47087 -1.30984 4.52008 -12.4028 -19.0288 -9.41576 -9.87875 4.41142 -4.52126 19.1977 -16.0547 1.30984 -8.92442 11.2063 -6.77953 -0.47126 3.80433 -16.0984 -13.5543 -5.24882 -5.94922 -6.20079 -0.475985 -11.0882 28.663 -8.93977 13.2047 -0.838583 -0.708662 8.58662 7.01693 1.19173 1.42913 -4.05237 7.49174 0.597638 0.474804 -1.4315 -2.85473 -1.90866 0.354331 -4.65118 9.04135 1.30984 7.02166 -4.64646 0 0.11811 2.02087 -1.31457 19.154 1.91221 6.54095 8.93977 -24.2658 6.44174 25.8118 12.874 5.70827 -8.34568 12.013 2.74252 6.06615 -7.03465 -7.96654 -4.05355 2.5004 -10.1362 -23.7921 -18.0047 -18.7961 -2.02677 -11.537 2.97874 -2.38347 13.3547 -10.4622 -4.17048 0.116929 -7.62993 12.4913 -7.03938 -18.5587 -5.36339 -5.70827 0.477166 -3.92953 5.72481 6.77953 2.86063 -3.09095 6.67678 -12.1299 -2.02677 -2.9752 4.29331 -17.3658 -3.57638c0,0 1.78228,-10.0181 1.07008,-10.1362 -0.71693,-0.11811 13.6795,2.86063 13.6795,2.86063l12.7287 -7.62875 -4.99607 -4.1752 -9.16182 5.60315 -12.2504 -3.57284 -5.11654 -12.1665 -15.9414 -3.69449 -19.6252 8.58544 15.2291 3.57756 0.354331 4.76811 -4.87559 2.86063 16.7717 4.41024 1.18701 6.6815 -18.9118 -5.12717 0.237402 -4.89095 -11.3008 -5.36221 -5.59134 -5.00906 -8.3256 -1.90866 -0.120473 0.11811c-0.120473,0.11811 -0.120473,0.11811 -0.237402,0.240945 -0.116929,0.116929 -0.712205,0.23504 -0.833859,0.116929l0.0011811 0c-0.116929,0 -0.475985,0 -0.475985,0 -0.237402,0 -0.354331,0 -0.595276,0.240945 -0.116929,0 -0.237402,0.11811 -0.359055,0.236221l-0.35315 0.238583c-0.359055,0.477166 -0.359055,0.477166 -0.950788,0.71693l0 0z"/>
   <path id="_464988592" class="fil8" d="M1203.51 601.502c-41.6339,16.6949 -76.3666,41.374 -103.846,71.1839 -11.7791,12.7559 -10.35,9.77717 -17.3669,26.1106l-4.87441 15.1441 10.3453 8.34568 -5.34922 22.4162 6.77835 21.9402 8.8004 3.45827 2.7378 -6.32363 -6.90001 -19.1965 1.78347 -16.6914 6.30827 1.43268 0 0.592914 6.4252 -8.34449c0.115748,-0.240945 0.827953,-0.239764 1.06654,-0.354331l1.66654 -2.14843c0.237402,-0.239764 0.832678,-0.239764 1.18701,-0.239764l1.19173 -1.55079c0.237402,-0.236221 0.829134,-0.236221 1.18701,-0.357874l5.11772 -6.79489c0.237402,-0.119291 0.474804,-0.236221 0.712205,0l0.833859 0.594095c0.357874,-0.594095 0.473622,-0.472441 0.949607,-0.236221l3.57048 -4.53307c-0.116929,-0.475985 -0.833859,-2.26181 -0.833859,-2.50276l0.359055 -1.66772 0.116929 -2.50276c0,-0.122835 0.120473,-0.239764 0.120473,-0.239764l5.34922 -7.03583c0.121654,0 0.121654,-0.121654 0.359055,-0.121654l1.78347 -0.236221c0.242126,-0.236221 1.19173,-1.66772 1.42913,-1.79055l5.8252 -2.74252c0.125197,-0.11811 1.19173,-0.23504 1.31221,-0.23504l1.30866 0.23504 1.18701 -1.42795c0.237402,-0.357874 0.596457,-0.11811 0.837402,0l9.2752 -12.0402 -1.90394 -3.1004c0,-0.240945 0,-0.357874 0.116929,-0.597638l0.837402 -1.0748c0.116929,-0.240945 0.474804,-0.357874 0.712205,-0.11811l2.25827 1.79055c0.237402,0.113386 0.237402,0.951969 0.357874,1.30984 0.0011811,0.11811 0,0.236221 -0.120473,0.357874l-1.07008 1.43268 9.39922 8.10473 0.713386 -0.121654 6.54095 -8.46379c0.120473,-0.23504 0.837402,-0.23504 1.07126,-0.357874l2.37874 -3.1004c0,-0.357874 -0.116929,-0.951969 0,-1.19173l1.30866 -1.6689 0.120473 -2.50276c0,0 0.120473,-0.121654 0.120473,-0.239764l1.18819 -1.54961 -0.596457 -4.89213c0,-0.113386 0,-0.23504 0.116929,-0.35315l1.07126 -1.43268 -1.66299 -2.1437c-0.116929,-0.122835 -0.116929,-0.359055 0,-0.598819l0 0 6.6626 -8.5819c0.116929,-0.243307 0.832678,-0.243307 1.06654,-0.357874 0.242126,-0.121654 0.357874,-0.479528 0.71693,-0.597638l0.829134 -0.11811 2.02559 -2.74252c0.237402,-0.121654 0.473622,-0.121654 0.715749,-0.239764l-0.357874 -0.83504c-0.120473,-0.121654 -0.121654,-0.356693 0,-0.479528l0.712205 -0.951969c0,-0.236221 -0.120473,-0.833859 0,-1.07362l0 -0.0011811c0,-0.236221 0.237402,-1.54606 0.357874,-1.78583l5.70945 -7.51182c0.357874,-0.357874 0.715749,0 1.0748,0.240945l1.06654 -0.598819c0.237402,-0.239764 0.354331,-0.597638 0.712205,-0.597638l1.90394 -0.359055c0.354331,-0.116929 1.30866,-0.592914 1.54606,-0.715749l1.90394 -0.236221 2.7378 -3.45827c-0.240945,-0.11811 -0.359055,-0.236221 -0.479528,-0.475985l-0.474804 -4.05237c-0.116929,-0.240945 -0.712205,-1.31457 -0.712205,-1.55079l-0.237402 -2.02677c0,0 0,0.0011811 0,-0.121654l0 -3.57284 -0.237402 -2.03032c0,-0.11811 0,-0.239764 0,-0.357874l0.712205 -0.83504 -1.18701 -2.74134c-0.242126,-0.477166 0.232677,-0.833859 0.590552,-0.594095 0.238583,0 0.121654,0 0.359055,-0.121654 0.237402,-0.119291 0.237402,-0.359055 0.478347,-0.477166 0.233858,-0.239764 0.47126,-0.357874 0.708662,-0.475985 0.359055,-0.236221 0.479528,-0.357874 0.712205,-0.479528l-3.32835 -0.712205z"/>
   <polygon id="_464984128" class="fil7" points="1303.68,857.618 1307.13,854.159 1316.88,854.516 1316.52,866.325 1319.61,875.505 1321.99,880.034 1327.35,883.732 1320.21,889.096 1309.03,887.663 1300.82,885.759 1304.04,876.22 1311.17,876.338 1311.65,871.688 1306.29,866.203 1302.61,862.028 "/>
   <polygon id="_464980624" class="fil7" points="1304.51,871.805 1312.36,864.055 1320.33,864.055 1325.21,867.753 1323.31,873.715 1309.74,879.322 1303.08,877.768 "/>
   <path id="_464989624" class="fil7" d="M1305.94 868.946l8.0882 1.90748 2.61614 -3.93425 3.33307 0.715749 3.45 1.54725 -2.37874 2.98229 -4.04528 -0.598819 -1.78347 3.69922 -3.56693 1.19291 -4.99961 -0.71693c0.120473,-1.19173 0.236221,-2.14488 0.236221,-2.14488l-1.89921 -0.474804 0.949607 -4.1752z"/>
   <polygon id="_464999560" class="fil7" points="1310.34,874.549 1311.65,870.614 1315.09,867.871 1317.95,871.452 1316.4,875.505 "/>
   <polygon id="_464989312" class="fil7" points="1311.52,868.823 1311.52,872.164 1315.22,875.147 1316.88,868.229 "/>
   <path id="_465009448" class="fil9" d="M1056.84 1006.66c54.9579,85.6123 117.65,133.662 206.625,151.07l0 -130.678c0,-9.42166 -7.61221,-16.9335 -16.8921,-17.0504l-64.4705 -0.957875 -125.262 -2.38347z"/>
   <path id="_465010144" class="fil10" d="M531.665 992.831l694.808 0c8.3256,0 15.1087,6.79725 15.1087,15.1476l0 405.75c0,8.34922 -6.78426,15.1453 -15.1087,15.1453l-694.808 0c-8.32914,0 -15.1087,-6.79607 -15.1087,-15.1453l0 -405.751c0,-8.34922 6.77953,-15.1465 15.1087,-15.1465l0 0z"/>
   <polygon id="_465002536" class="fil11" points="546.769,1023.12 1211.36,1023.12 1211.36,1398.59 546.769,1398.59 "/>
   <polygon id="_465000640" class="fil12" points="672.388,1023.12 673.1,1023.12 1211.36,1023.12 1211.36,1398.59 1061.61,1398.59 1061.36,1398.59 "/>
   <polygon id="_464984296" class="fil11" points="546.769,1023.12 672.388,1023.12 1061.36,1398.59 546.769,1398.59 "/>
   <path id="_464992384" class="fil13" d="M879.01 998.674c5.47087,0 9.75001,4.4126 9.75001,9.77954 0,5.36575 -4.27914,9.77481 -9.75001,9.77481 -5.35394,0 -9.75473,-4.40906 -9.75473,-9.77481 0,-5.36693 4.40079,-9.77954 9.75473,-9.77954l0 0z"/>
   <path id="_464998312" class="fil8" d="M879.01 1003.92c2.61614,0 4.64174,2.03032 4.64174,4.53426 0,2.49921 -2.02559,4.52835 -4.64174,4.52835 -2.5004,0 -4.52126,-2.02914 -4.52126,-4.52835 0,-2.50394 2.02087,-4.53426 4.52126,-4.53426l0 0z"/>
   <path id="_464987152" class="fil14" d="M451.49 1418.26l330.929 0 0 8.2252 193.301 0 0 -8.2252 330.93 0c4.16221,0 7.49528,3.33662 7.49528,7.51182l0 18.2421c0,12.5162 -10.1091,22.6583 -22.604,22.6583l-824.946 0c-12.4878,0 -22.7173,-10.1421 -22.7173,-22.6583l0 -18.2421c0,-4.1752 3.44646,-7.51182 7.61339,-7.51182l0 0z"/>
   <path id="_464983792" class="fil15" d="M1313.55 1449.5c-2.5004,9.89646 -11.4213,17.1709 -22.0087,17.1709l-824.946 0c-10.5874,0 -19.6252,-7.27442 -22.0051,-17.1709l868.96 0z"/>
   <polygon id="_464995120" class="fil16" points="1199.47,1432.92 1217.43,1432.92 1217.43,1440.2 1199.47,1440.2 "/>
   <polygon id="_464996704" class="fil17" points="1165.57,1432.92 1183.41,1432.92 1183.41,1440.2 1165.57,1440.2 "/>
  </g>
 </g>
</svg>
