<?xml version="1.0" encoding="UTF-8"?>
<!DOCTYPE svg PUBLIC "-//W3C//DTD SVG 1.1//EN" "http://www.w3.org/Graphics/SVG/1.1/DTD/svg11.dtd">
<!-- Creator: CorelDRAW -->
<svg xmlns="http://www.w3.org/2000/svg" xml:space="preserve" width="2048px" height="2048px" style="shape-rendering:geometricPrecision; text-rendering:geometricPrecision; image-rendering:optimizeQuality; fill-rule:evenodd; clip-rule:evenodd"
viewBox="0 0 2048 2048"
 xmlns:xlink="http://www.w3.org/1999/xlink">
 <defs>
  <style type="text/css">
   <![CDATA[
    .fil2 {fill:none}
    .fil3 {fill:#37474F}
    .fil7 {fill:#7CB342}
    .fil6 {fill:#80DEEA}
    .fil1 {fill:#AB47BC}
    .fil0 {fill:#CE93D8}
    .fil4 {fill:#FFFFFE}
    .fil11 {fill:#212121;fill-rule:nonzero}
    .fil5 {fill:#263238;fill-rule:nonzero}
    .fil10 {fill:#37474F;fill-rule:nonzero}
    .fil8 {fill:#6D4C41;fill-rule:nonzero}
    .fil9 {fill:#A1887F;fill-rule:nonzero}
   ]]>
  </style>
   <clipPath id="id0">
    <path d="M1024 0c565.539,0 1024,458.461 1024,1024 0,565.539 -458.461,1024 -1024,1024 -565.539,0 -1024,-458.461 -1024,-1024 0,-565.539 458.461,-1024 1024,-1024z"/>
   </clipPath>
 </defs>
 <g id="Layer_x0020_1">
  <metadata id="CorelCorpID_0Corel-Layer"/>
  <path class="fil0" d="M1024 0c565.539,0 1024,458.461 1024,1024 0,565.539 -458.461,1024 -1024,1024 -565.539,0 -1024,-458.461 -1024,-1024 0,-565.539 458.461,-1024 1024,-1024z"/>
  <g style="clip-path:url(#id0)">
   <g id="_341214208">
    <g>
     <polygon id="_3384428161" class="fil1" points="1544.19,678.202 2680.08,1814.08 2681.12,1815.37 2682.14,1816.68 2683.12,1818.02 2684.08,1819.39 2685.01,1820.77 2685.9,1822.18 2686.76,1823.62 2687.59,1825.08 2688.39,1826.56 2689.15,1828.06 2689.88,1829.58 2690.58,1831.12 2691.23,1832.68 2691.86,1834.27 2692.44,1835.87 2692.99,1837.49 2693.51,1839.12 2693.98,1840.78 2694.42,1842.45 2694.82,1844.13 2695.17,1845.84 2695.49,1847.55 2695.77,1849.28 2696.01,1851.03 2696.2,1852.79 2696.35,1854.56 2696.46,1856.34 2696.53,1858.14 2696.55,1859.94 1560.67,724.058 1560.64,722.253 1560.58,720.459 1560.47,718.675 1560.32,716.905 1560.12,715.147 1559.89,713.402 1559.61,711.671 1559.29,709.954 1558.93,708.252 1558.54,706.566 1558.1,704.895 1557.63,703.242 1557.11,701.605 1556.56,699.986 1555.98,698.385 1555.35,696.803 1554.69,695.24 1554,693.697 1553.27,692.175 1552.51,690.674 1551.71,689.194 1550.88,687.736 1550.02,686.301 1549.13,684.891 1548.2,683.503 1547.24,682.14 1546.26,680.802 1545.24,679.489 "/>
     <polygon id="_338443008" class="fil1" points="1560.67,724.058 2696.55,1859.94 2696.55,2390.37 1560.67,1254.49 "/>
     <polygon id="_338443896" class="fil1" points="1560.67,1254.49 2696.55,2390.37 2696.53,2392.17 2696.46,2393.97 2696.35,2395.75 2696.2,2397.52 2696.01,2399.28 2695.77,2401.02 2695.49,2402.75 2695.17,2404.47 2694.82,2406.17 2694.42,2407.86 2693.98,2409.53 2693.51,2411.18 2692.99,2412.82 2692.44,2414.44 2691.86,2416.04 2691.23,2417.62 2690.58,2419.18 2689.88,2420.73 2689.15,2422.25 2688.39,2423.75 2687.59,2425.23 2686.76,2426.69 2685.9,2428.12 2685.01,2429.53 2684.08,2430.92 2683.12,2432.28 2682.14,2433.62 2681.12,2434.94 2680.08,2436.22 2679,2437.48 2677.9,2438.71 2676.77,2439.92 1540.89,1304.04 1542.02,1302.83 1543.12,1301.6 1544.19,1300.34 1545.24,1299.05 1546.26,1297.74 1547.24,1296.4 1548.2,1295.04 1549.13,1293.65 1550.02,1292.24 1550.88,1290.81 1551.71,1289.35 1552.51,1287.87 1553.27,1286.37 1554,1284.84 1554.69,1283.3 1555.35,1281.74 1555.98,1280.16 1556.56,1278.56 1557.11,1276.94 1557.63,1275.3 1558.1,1273.65 1558.54,1271.98 1558.93,1270.29 1559.29,1268.59 1559.61,1266.87 1559.89,1265.14 1560.12,1263.4 1560.32,1261.64 1560.47,1259.87 1560.58,1258.08 1560.64,1256.29 "/>
     <polygon id="_338443464" class="fil1" points="1540.89,1304.04 2676.77,2439.92 2675.61,2441.09 2674.43,2442.24 2673.21,2443.36 2671.98,2444.45 2670.72,2445.51 2669.43,2446.53 2668.12,2447.53 2666.79,2448.49 2665.43,2449.42 2664.05,2450.32 2662.65,2451.18 2661.23,2452.01 2659.79,2452.81 2658.32,2453.56 2656.84,2454.29 2655.34,2454.97 2653.82,2455.62 2652.28,2456.23 2650.73,2456.8 2649.15,2457.34 2647.56,2457.83 2645.96,2458.29 2644.34,2458.7 2642.7,2459.07 2641.05,2459.4 2639.39,2459.69 2637.71,2459.94 2636.02,2460.14 2634.32,2460.3 2632.61,2460.41 2630.88,2460.48 2629.15,2460.5 1493.27,1324.62 1495,1324.6 1496.73,1324.53 1498.44,1324.41 1500.14,1324.26 1501.83,1324.05 1503.51,1323.81 1505.17,1323.52 1506.82,1323.19 1508.46,1322.82 1510.08,1322.4 1511.68,1321.95 1513.27,1321.46 1514.84,1320.92 1516.4,1320.35 1517.94,1319.74 1519.46,1319.09 1520.96,1318.41 1522.44,1317.68 1523.91,1316.92 1525.35,1316.13 1526.77,1315.3 1528.17,1314.44 1529.55,1313.54 1530.91,1312.61 1532.24,1311.65 1533.55,1310.65 1534.84,1309.63 1536.1,1308.57 1537.33,1307.48 1538.54,1306.36 1539.73,1305.21 "/>
     <polygon id="_338443344" class="fil1" points="1573.71,1330.55 2709.59,2466.43 2711.39,2468.43 2713.05,2470.68 2714.55,2473.14 2715.9,2475.82 2717.07,2478.68 2718.05,2481.71 2718.83,2484.91 2719.41,2488.23 2719.76,2491.68 2719.88,2495.23 1584,1359.35 1583.88,1355.8 1583.53,1352.35 1582.95,1349.02 1582.17,1345.83 1581.18,1342.8 1580.02,1339.93 1578.67,1337.26 1577.17,1334.79 1575.51,1332.55 "/>
     <polygon id="_338443512" class="fil1" points="1584,1359.35 2719.88,2495.23 2719.76,2498.78 2719.41,2502.23 2718.83,2505.56 2718.05,2508.75 2717.07,2511.79 2715.9,2514.65 2714.55,2517.32 2713.05,2519.79 2711.39,2522.03 2709.59,2524.03 2707.67,2525.77 2705.63,2527.23 2703.49,2528.4 2701.25,2529.26 2698.93,2529.78 2696.55,2529.96 1560.67,1394.08 1563.05,1393.9 1565.37,1393.37 1567.61,1392.52 1569.75,1391.35 1571.79,1389.89 1573.71,1388.15 1575.51,1386.15 1577.17,1383.91 1578.67,1381.44 1580.02,1378.77 1581.18,1375.9 1582.17,1372.87 1582.95,1369.68 1583.53,1366.35 1583.88,1362.9 "/>
     <polygon id="_338443608" class="fil1" points="554.735,1324.62 1690.62,2460.5 1688.88,2460.48 1687.16,2460.41 1685.44,2460.3 1683.74,2460.14 1682.05,2459.94 1680.38,2459.69 1678.71,2459.4 1677.06,2459.07 1675.43,2458.7 1673.81,2458.29 1672.2,2457.83 1670.61,2457.34 1669.04,2456.8 1667.48,2456.23 1665.94,2455.62 1664.42,2454.97 1662.92,2454.29 1661.44,2453.56 1659.98,2452.81 1658.53,2452.01 1657.11,2451.18 1655.71,2450.32 1654.33,2449.42 1652.98,2448.49 1651.64,2447.53 1650.33,2446.53 1649.05,2445.51 1647.79,2444.45 511.904,1308.57 513.166,1309.63 514.452,1310.65 515.762,1311.65 517.095,1312.61 518.451,1313.54 519.831,1314.44 521.23,1315.3 522.652,1316.13 524.096,1316.92 525.558,1317.68 527.041,1318.41 528.543,1319.09 530.064,1319.74 531.602,1320.35 533.157,1320.92 534.73,1321.46 536.32,1321.95 537.925,1322.4 539.546,1322.82 541.182,1323.19 542.832,1323.52 544.495,1323.81 546.172,1324.05 547.861,1324.26 549.563,1324.41 551.275,1324.53 553,1324.6 "/>
     <polygon id="_338443728" class="fil1" points="487.334,1394.08 1623.22,2529.96 1620.83,2529.78 1618.51,2529.26 1616.28,2528.4 1614.13,2527.23 1612.09,2525.77 476.211,1389.89 478.251,1391.35 480.395,1392.52 482.631,1393.37 484.948,1393.9 "/>
     <polygon id="_338443776" class="fil1" points="1560.67,1394.08 2696.55,2529.96 1623.22,2529.96 487.334,1394.08 "/>
    </g>
    <path id="_341214040" class="fil1" d="M554.735 653.921l938.532 0c18.5575,0 35.4142,7.88623 47.6197,20.5843 12.2032,12.7004 19.7811,30.241 19.7811,49.552l0 530.428c0,19.3099 -7.57796,36.8504 -19.7811,49.5508 -12.2055,12.7004 -29.0622,20.5843 -47.6197,20.5843l67.4008 0c12.8858,0 23.3339,15.5504 23.3339,34.7292 0,19.1799 -10.448,34.7292 -23.3339,34.7292l-1073.33 0c-12.887,0 -23.3339,-15.5492 -23.3339,-34.7292 0,-19.1788 10.4469,-34.7292 23.3339,-34.7292l67.4008 0c-18.5575,0 -35.4142,-7.88386 -47.6197,-20.5843 -12.2043,-12.6992 -19.7811,-30.2398 -19.7811,-49.5508l0 -530.428c0,-19.311 7.5756,-36.8504 19.7811,-49.552 12.2055,-12.698 29.061,-20.5843 47.6197,-20.5843z"/>
   </g>
  </g>
  <path class="fil2" d="M1024 0c565.539,0 1024,458.461 1024,1024 0,565.539 -458.461,1024 -1024,1024 -565.539,0 -1024,-458.461 -1024,-1024 0,-565.539 458.461,-1024 1024,-1024z"/>
  <path class="fil3" d="M554.735 653.921l938.532 0c18.5575,0 35.4142,7.88623 47.6197,20.5843 12.2032,12.7004 19.7811,30.241 19.7811,49.552l0 530.428c0,19.3099 -7.57796,36.8504 -19.7811,49.5508 -12.2055,12.7004 -29.0622,20.5843 -47.6197,20.5843l-938.532 0c-18.5575,0 -35.4142,-7.88386 -47.6197,-20.5843 -12.2043,-12.6992 -19.7811,-30.2398 -19.7811,-49.5508l0 -530.428c0,-19.311 7.5756,-36.8504 19.7811,-49.552 12.2055,-12.698 29.061,-20.5843 47.6197,-20.5843z"/>
  <path class="fil4" d="M554.735 697.671c-6.20906,0 -11.8193,2.72126 -16.076,7.1504 -4.9689,5.16969 -7.5756,12.0933 -7.5756,19.2366l0 530.428c0,7.14213 2.60788,14.0669 7.5756,19.2366 4.25788,4.42914 9.86694,7.1504 16.076,7.1504l938.532 0c6.20788,0 11.8181,-2.72008 16.0736,-7.14922 4.9689,-5.16969 7.57796,-12.0957 7.57796,-19.2378l0 -530.428c0,-7.14331 -2.60906,-14.0681 -7.57678,-19.2378 -4.25552,-4.42914 -9.86694,-7.14922 -16.0748,-7.14922l-938.532 0z"/>
  <path class="fil5" d="M487.334 1324.62c-12.887,0 -23.3339,15.5504 -23.3339,34.7292 0,19.1799 10.4469,34.7292 23.3339,34.7292l1073.33 0c12.8858,0 23.3339,-15.5492 23.3339,-34.7292 0,-19.1788 -10.448,-34.7292 -23.3339,-34.7292l-1073.33 0z"/>
  <ellipse class="fil6" cx="1499.14" cy="1361.49" rx="12.0433" ry="12.0433"/>
  <ellipse class="fil7" cx="1463.2" cy="1361.49" rx="12.0433" ry="12.0433"/>
  <path class="fil8" d="M758.401 741.288c-6.37796,0 -11.5488,5.17087 -11.5488,11.5476 0,6.37796 5.17087,11.5488 11.5488,11.5488l75.7288 0 20.0043 32.2583 57.1087 327.605 11.3681 -1.93937 -11.3764 1.98307c0.986221,5.66103 5.94095,9.63426 11.5075,9.56457l331.442 0c6.37678,0 11.5476,-5.16969 11.5476,-11.5476 0,-6.37796 -5.17087,-11.5476 -11.5476,-11.5476l-321.881 0 -7.9004 -45.3248 326.628 0c8.9882,0 16.7457,-3.58583 22.5378,-9.37796 5.74961,-5.74961 9.45473,-13.7445 10.3016,-22.4693l17.1047 -176.184c0.115748,-1.19528 0.173622,-2.12126 0.173622,-2.78268 0,-8.3752 -3.60945,-15.8882 -9.28347,-21.4642 -5.37166,-5.27835 -12.7122,-8.81221 -20.5583,-9.57402 -1.3063,-0.125197 -2.37047,-0.191339 -3.17126,-0.191339l-385.927 0 -5.6126 -32.1957c-0.190158,-1.63583 -0.733465,-3.2563 -1.65827,-4.74804l-0.0366142 0.0236221 -24.0803 -38.8311c-1.90158,-3.7689 -5.8063,-6.35315 -10.3158,-6.35315l-82.1044 0z"/>
  <path class="fil9" d="M981.109 971.848l96.4938 0 0 -48.828 -96.4938 0 0 48.828zm208.671 0l0 -48.828 -96.4938 0 0 48.828 96.4938 0zm15.6839 -136.909l0 70.8272 78.8434 0 -2.31969 17.2536 -76.5237 0 0 48.828 72.8682 0 -2.24882 17.2547 -70.6193 0 0 64.7847 -15.6839 0 0 -64.7847 -96.4938 0 0 64.7847 -15.6839 0 0 -64.7847 -96.4938 0 0 64.7847 -15.6839 0 0 -64.7847 -60.2457 0 -3.55276 -17.2547 63.7985 0 0 -48.828 -66.1075 0 -3.66614 -17.2536 69.7737 0 0 -70.8272 15.6839 0 0 70.8272 96.4938 0 0 -70.8272 15.6839 0 0 70.8272 96.4938 0 0 -70.8272 15.6839 0z"/>
  <path class="fil10" d="M970.505 1124.06c11.5819,0 22.0689,4.69607 29.6599,12.287 7.59095,7.59213 12.287,18.0791 12.287,29.661 0,11.5819 -4.69607,22.0689 -12.287,29.6599 -7.59095,7.59095 -18.078,12.287 -29.6599,12.287 -11.5819,0 -22.0689,-4.69607 -29.661,-12.287 -7.59095,-7.59095 -12.287,-18.078 -12.287,-29.6599 0,-11.5819 4.69607,-22.0689 12.287,-29.661 7.59095,-7.59095 18.078,-12.287 29.661,-12.287z"/>
  <path class="fil10" d="M1187.92 1124.06c11.5819,0 22.0689,4.69607 29.6599,12.287 7.59095,7.59213 12.287,18.0791 12.287,29.661 0,11.5819 -4.69607,22.0689 -12.287,29.6599 -7.59095,7.59095 -18.078,12.287 -29.6599,12.287 -11.5819,0 -22.0701,-4.69607 -29.661,-12.287 -7.59095,-7.59095 -12.287,-18.078 -12.287,-29.6599 0,-11.5819 4.69607,-22.0689 12.287,-29.661 7.59095,-7.59095 18.078,-12.287 29.661,-12.287z"/>
  <path class="fil11" d="M1187.91 1146.13c5.48859,0 10.4587,2.2252 14.0563,5.82284 3.59764,3.59764 5.82284,8.56772 5.82284,14.0551 0,5.48859 -2.2252,10.4587 -5.82284,14.0563 -3.59764,3.59646 -8.56772,5.82284 -14.0563,5.82284 -5.48859,0 -10.4575,-2.22638 -14.0551,-5.82284 -3.59764,-3.59764 -5.82284,-8.56772 -5.82284,-14.0563 0,-5.48741 2.2252,-10.4575 5.82284,-14.0551 3.59646,-3.59764 8.56654,-5.82284 14.0551,-5.82284z"/>
  <path class="fil11" d="M970.505 1146.13c5.48859,0 10.4575,2.2252 14.0551,5.82284 3.59764,3.59764 5.82284,8.56772 5.82284,14.0551 0,5.48859 -2.2252,10.4587 -5.82284,14.0563 -3.59646,3.59646 -8.56654,5.82284 -14.0551,5.82284 -5.48859,0 -10.4587,-2.22638 -14.0563,-5.82284 -3.59646,-3.59764 -5.82284,-8.56772 -5.82284,-14.0563 0,-5.48741 2.22638,-10.4575 5.82284,-14.0551 3.59764,-3.59764 8.56772,-5.82284 14.0563,-5.82284z"/>
 </g>
</svg>
